<?xml version="1.0" encoding="utf-8" standalone="no"?>
<!DOCTYPE svg PUBLIC "-//W3C//DTD SVG 1.1//EN"
  "http://www.w3.org/Graphics/SVG/1.1/DTD/svg11.dtd">
<svg xmlns:xlink="http://www.w3.org/1999/xlink" width="600.3pt" height="195.624931pt" viewBox="0 0 600.3 195.624931" xmlns="http://www.w3.org/2000/svg" version="1.1">
 <metadata>
  <rdf:RDF xmlns:dc="http://purl.org/dc/elements/1.1/" xmlns:cc="http://creativecommons.org/ns#" xmlns:rdf="http://www.w3.org/1999/02/22-rdf-syntax-ns#">
   <cc:Work>
    <dc:type rdf:resource="http://purl.org/dc/dcmitype/StillImage"/>
    <dc:date>2026-04-14T17:26:29.289635</dc:date>
    <dc:format>image/svg+xml</dc:format>
    <dc:creator>
     <cc:Agent>
      <dc:title>Matplotlib v3.10.8, https://matplotlib.org/</dc:title>
     </cc:Agent>
    </dc:creator>
   </cc:Work>
  </rdf:RDF>
 </metadata>
 <defs>
  <style type="text/css">*{stroke-linejoin: round; stroke-linecap: butt}</style>
 </defs>
 <g id="figure_1">
  <g id="patch_1">
   <path d="M 0 195.624931 
L 600.3 195.624931 
L 600.3 0 
L 0 0 
z
" style="fill: #ffffff"/>
  </g>
  <g id="axes_1">
   <g id="line2d_1">
    <path d="M 143.114107 82.411928 
L 146.328292 77.361066 
L 149.542476 87.46279 
L 152.756661 77.361066 
L 155.970846 87.46279 
L 159.185031 77.361066 
L 162.399216 87.46279 
L 165.613401 77.361066 
L 168.827586 87.46279 
L 172.041771 77.361066 
L 175.255956 87.46279 
L 178.470141 77.361066 
L 181.684326 87.46279 
" clip-path="url(#p6a9dd29a23)" style="fill: none; stroke: #37474f; stroke-width: 1.35; stroke-linecap: round"/>
   </g>
   <g id="line2d_2">
    <path d="M 280.86489 82.411928 
L 284.079075 77.361066 
L 287.29326 87.46279 
L 290.507445 77.361066 
L 293.72163 87.46279 
L 296.935815 77.361066 
L 300.15 87.46279 
L 303.364185 77.361066 
L 306.57837 87.46279 
L 309.792555 77.361066 
L 313.00674 87.46279 
L 316.220925 77.361066 
L 319.43511 87.46279 
" clip-path="url(#p6a9dd29a23)" style="fill: none; stroke: #37474f; stroke-width: 1.35; stroke-linecap: round"/>
   </g>
   <g id="line2d_3">
    <path d="M 418.615674 82.411928 
L 421.829859 77.361066 
L 425.044044 87.46279 
L 428.258229 77.361066 
L 431.472414 87.46279 
L 434.686599 77.361066 
L 437.900784 87.46279 
L 441.114969 77.361066 
L 444.329154 87.46279 
L 447.543339 77.361066 
L 450.757524 87.46279 
L 453.971708 77.361066 
L 457.185893 87.46279 
" clip-path="url(#p6a9dd29a23)" style="fill: none; stroke: #37474f; stroke-width: 1.35; stroke-linecap: round"/>
   </g>
   <g id="patch_2">
    <path d="M 47.606897 120.063809 
L 139.440752 120.063809 
Q 144.950784 120.063809 144.950784 114.553777 
L 144.950784 50.270078 
Q 144.950784 44.760047 139.440752 44.760047 
L 47.606897 44.760047 
Q 42.096865 44.760047 42.096865 50.270078 
L 42.096865 114.553777 
Q 42.096865 120.063809 47.606897 120.063809 
z
" clip-path="url(#p6a9dd29a23)" style="fill: #eceff1; stroke: #263238; stroke-width: 1.6; stroke-linejoin: miter"/>
   </g>
   <g id="patch_3">
    <path d="M 185.35768 120.063809 
L 277.191536 120.063809 
Q 282.701567 120.063809 282.701567 114.553777 
L 282.701567 50.270078 
Q 282.701567 44.760047 277.191536 44.760047 
L 185.35768 44.760047 
Q 179.847649 44.760047 179.847649 50.270078 
L 179.847649 114.553777 
Q 179.847649 120.063809 185.35768 120.063809 
z
" clip-path="url(#p6a9dd29a23)" style="fill: #eceff1; stroke: #263238; stroke-width: 1.6; stroke-linejoin: miter"/>
   </g>
   <g id="patch_4">
    <path d="M 323.108464 120.063809 
L 414.94232 120.063809 
Q 420.452351 120.063809 420.452351 114.553777 
L 420.452351 50.270078 
Q 420.452351 44.760047 414.94232 44.760047 
L 323.108464 44.760047 
Q 317.598433 44.760047 317.598433 50.270078 
L 317.598433 114.553777 
Q 317.598433 120.063809 323.108464 120.063809 
z
" clip-path="url(#p6a9dd29a23)" style="fill: #eceff1; stroke: #263238; stroke-width: 1.6; stroke-linejoin: miter"/>
   </g>
   <g id="patch_5">
    <path d="M 460.859248 120.063809 
L 552.693103 120.063809 
Q 558.203135 120.063809 558.203135 114.553777 
L 558.203135 50.270078 
Q 558.203135 44.760047 552.693103 44.760047 
L 460.859248 44.760047 
Q 455.349216 44.760047 455.349216 50.270078 
L 455.349216 114.553777 
Q 455.349216 120.063809 460.859248 120.063809 
z
" clip-path="url(#p6a9dd29a23)" style="fill: #eceff1; stroke: #263238; stroke-width: 1.6; stroke-linejoin: miter"/>
   </g>
   <g id="text_1">
    <!-- Locomotive -->
    <g style="fill: #263238" transform="translate(57.861481 65.05673) scale(0.11 -0.11)">
     <defs>
      <path id="DejaVuSans-Bold-4c" d="M 588 4666 
L 1791 4666 
L 1791 909 
L 3903 909 
L 3903 0 
L 588 0 
L 588 4666 
z
" transform="scale(0.015625)"/>
      <path id="DejaVuSans-Bold-6f" d="M 2203 2784 
Q 1831 2784 1636 2517 
Q 1441 2250 1441 1747 
Q 1441 1244 1636 976 
Q 1831 709 2203 709 
Q 2569 709 2762 976 
Q 2956 1244 2956 1747 
Q 2956 2250 2762 2517 
Q 2569 2784 2203 2784 
z
M 2203 3584 
Q 3106 3584 3614 3096 
Q 4122 2609 4122 1747 
Q 4122 884 3614 396 
Q 3106 -91 2203 -91 
Q 1297 -91 786 396 
Q 275 884 275 1747 
Q 275 2609 786 3096 
Q 1297 3584 2203 3584 
z
" transform="scale(0.015625)"/>
      <path id="DejaVuSans-Bold-63" d="M 3366 3391 
L 3366 2478 
Q 3138 2634 2908 2709 
Q 2678 2784 2431 2784 
Q 1963 2784 1702 2511 
Q 1441 2238 1441 1747 
Q 1441 1256 1702 982 
Q 1963 709 2431 709 
Q 2694 709 2930 787 
Q 3166 866 3366 1019 
L 3366 103 
Q 3103 6 2833 -42 
Q 2563 -91 2291 -91 
Q 1344 -91 809 395 
Q 275 881 275 1747 
Q 275 2613 809 3098 
Q 1344 3584 2291 3584 
Q 2566 3584 2833 3536 
Q 3100 3488 3366 3391 
z
" transform="scale(0.015625)"/>
      <path id="DejaVuSans-Bold-6d" d="M 3781 2919 
Q 3994 3244 4286 3414 
Q 4578 3584 4928 3584 
Q 5531 3584 5847 3212 
Q 6163 2841 6163 2131 
L 6163 0 
L 5038 0 
L 5038 1825 
Q 5041 1866 5042 1909 
Q 5044 1953 5044 2034 
Q 5044 2406 4934 2573 
Q 4825 2741 4581 2741 
Q 4263 2741 4089 2478 
Q 3916 2216 3909 1719 
L 3909 0 
L 2784 0 
L 2784 1825 
Q 2784 2406 2684 2573 
Q 2584 2741 2328 2741 
Q 2006 2741 1831 2477 
Q 1656 2213 1656 1722 
L 1656 0 
L 531 0 
L 531 3500 
L 1656 3500 
L 1656 2988 
Q 1863 3284 2130 3434 
Q 2397 3584 2719 3584 
Q 3081 3584 3359 3409 
Q 3638 3234 3781 2919 
z
" transform="scale(0.015625)"/>
      <path id="DejaVuSans-Bold-74" d="M 1759 4494 
L 1759 3500 
L 2913 3500 
L 2913 2700 
L 1759 2700 
L 1759 1216 
Q 1759 972 1856 886 
Q 1953 800 2241 800 
L 2816 800 
L 2816 0 
L 1856 0 
Q 1194 0 917 276 
Q 641 553 641 1216 
L 641 2700 
L 84 2700 
L 84 3500 
L 641 3500 
L 641 4494 
L 1759 4494 
z
" transform="scale(0.015625)"/>
      <path id="DejaVuSans-Bold-69" d="M 538 3500 
L 1656 3500 
L 1656 0 
L 538 0 
L 538 3500 
z
M 538 4863 
L 1656 4863 
L 1656 3950 
L 538 3950 
L 538 4863 
z
" transform="scale(0.015625)"/>
      <path id="DejaVuSans-Bold-76" d="M 97 3500 
L 1216 3500 
L 2088 1081 
L 2956 3500 
L 4078 3500 
L 2700 0 
L 1472 0 
L 97 3500 
z
" transform="scale(0.015625)"/>
      <path id="DejaVuSans-Bold-65" d="M 4031 1759 
L 4031 1441 
L 1416 1441 
Q 1456 1047 1700 850 
Q 1944 653 2381 653 
Q 2734 653 3104 758 
Q 3475 863 3866 1075 
L 3866 213 
Q 3469 63 3072 -14 
Q 2675 -91 2278 -91 
Q 1328 -91 801 392 
Q 275 875 275 1747 
Q 275 2603 792 3093 
Q 1309 3584 2216 3584 
Q 3041 3584 3536 3087 
Q 4031 2591 4031 1759 
z
M 2881 2131 
Q 2881 2450 2695 2645 
Q 2509 2841 2209 2841 
Q 1884 2841 1681 2658 
Q 1478 2475 1428 2131 
L 2881 2131 
z
" transform="scale(0.015625)"/>
     </defs>
     <use xlink:href="#DejaVuSans-Bold-4c"/>
     <use xlink:href="#DejaVuSans-Bold-6f" transform="translate(63.720703 0)"/>
     <use xlink:href="#DejaVuSans-Bold-63" transform="translate(132.421875 0)"/>
     <use xlink:href="#DejaVuSans-Bold-6f" transform="translate(191.699219 0)"/>
     <use xlink:href="#DejaVuSans-Bold-6d" transform="translate(260.400391 0)"/>
     <use xlink:href="#DejaVuSans-Bold-6f" transform="translate(364.599609 0)"/>
     <use xlink:href="#DejaVuSans-Bold-74" transform="translate(433.300781 0)"/>
     <use xlink:href="#DejaVuSans-Bold-69" transform="translate(481.103516 0)"/>
     <use xlink:href="#DejaVuSans-Bold-76" transform="translate(515.380859 0)"/>
     <use xlink:href="#DejaVuSans-Bold-65" transform="translate(580.566406 0)"/>
    </g>
   </g>
   <g id="text_2">
    <!-- node $i=0$ -->
    <g style="fill: #37474f" transform="translate(74.044824 73.312117) scale(0.086 -0.086)">
     <defs>
      <path id="DejaVuSans-6e" d="M 3513 2113 
L 3513 0 
L 2938 0 
L 2938 2094 
Q 2938 2591 2744 2837 
Q 2550 3084 2163 3084 
Q 1697 3084 1428 2787 
Q 1159 2491 1159 1978 
L 1159 0 
L 581 0 
L 581 3500 
L 1159 3500 
L 1159 2956 
Q 1366 3272 1645 3428 
Q 1925 3584 2291 3584 
Q 2894 3584 3203 3211 
Q 3513 2838 3513 2113 
z
" transform="scale(0.015625)"/>
      <path id="DejaVuSans-6f" d="M 1959 3097 
Q 1497 3097 1228 2736 
Q 959 2375 959 1747 
Q 959 1119 1226 758 
Q 1494 397 1959 397 
Q 2419 397 2687 759 
Q 2956 1122 2956 1747 
Q 2956 2369 2687 2733 
Q 2419 3097 1959 3097 
z
M 1959 3584 
Q 2709 3584 3137 3096 
Q 3566 2609 3566 1747 
Q 3566 888 3137 398 
Q 2709 -91 1959 -91 
Q 1206 -91 779 398 
Q 353 888 353 1747 
Q 353 2609 779 3096 
Q 1206 3584 1959 3584 
z
" transform="scale(0.015625)"/>
      <path id="DejaVuSans-64" d="M 2906 2969 
L 2906 4863 
L 3481 4863 
L 3481 0 
L 2906 0 
L 2906 525 
Q 2725 213 2448 61 
Q 2172 -91 1784 -91 
Q 1150 -91 751 415 
Q 353 922 353 1747 
Q 353 2572 751 3078 
Q 1150 3584 1784 3584 
Q 2172 3584 2448 3432 
Q 2725 3281 2906 2969 
z
M 947 1747 
Q 947 1113 1208 752 
Q 1469 391 1925 391 
Q 2381 391 2643 752 
Q 2906 1113 2906 1747 
Q 2906 2381 2643 2742 
Q 2381 3103 1925 3103 
Q 1469 3103 1208 2742 
Q 947 2381 947 1747 
z
" transform="scale(0.015625)"/>
      <path id="DejaVuSans-65" d="M 3597 1894 
L 3597 1613 
L 953 1613 
Q 991 1019 1311 708 
Q 1631 397 2203 397 
Q 2534 397 2845 478 
Q 3156 559 3463 722 
L 3463 178 
Q 3153 47 2828 -22 
Q 2503 -91 2169 -91 
Q 1331 -91 842 396 
Q 353 884 353 1716 
Q 353 2575 817 3079 
Q 1281 3584 2069 3584 
Q 2775 3584 3186 3129 
Q 3597 2675 3597 1894 
z
M 3022 2063 
Q 3016 2534 2758 2815 
Q 2500 3097 2075 3097 
Q 1594 3097 1305 2825 
Q 1016 2553 972 2059 
L 3022 2063 
z
" transform="scale(0.015625)"/>
      <path id="DejaVuSans-20" transform="scale(0.015625)"/>
      <path id="STIXGeneral-Italic-1d62a" d="M 2080 4346 
L 1933 3750 
L 1344 3750 
L 1491 4346 
L 2080 4346 
z
M 1702 2938 
L 973 0 
L 442 0 
L 1139 2816 
L 1651 2970 
L 1702 2938 
z
" transform="scale(0.015625)"/>
      <path id="STIXGeneral-Regular-3d" d="M 4077 2048 
L 307 2048 
L 307 2470 
L 4077 2470 
L 4077 2048 
z
M 4077 768 
L 307 768 
L 307 1190 
L 4077 1190 
L 4077 768 
z
" transform="scale(0.015625)"/>
      <path id="STIXGeneral-Regular-1d7e2" d="M 3053 2112 
Q 3053 1523 2915 1046 
Q 2778 570 2438 240 
Q 2099 -90 1600 -90 
Q 1203 -90 912 108 
Q 621 307 461 643 
Q 301 979 224 1353 
Q 147 1728 147 2150 
Q 147 2746 294 3222 
Q 442 3699 787 4012 
Q 1133 4326 1626 4326 
Q 2253 4326 2653 3708 
Q 3053 3091 3053 2112 
z
M 2547 2112 
Q 2547 2893 2288 3382 
Q 2029 3872 1613 3872 
Q 1139 3872 896 3376 
Q 653 2880 653 2138 
Q 653 1805 701 1507 
Q 749 1210 854 944 
Q 960 678 1152 521 
Q 1344 365 1600 365 
Q 1926 365 2147 627 
Q 2368 890 2457 1270 
Q 2547 1651 2547 2112 
z
" transform="scale(0.015625)"/>
     </defs>
     <use xlink:href="#DejaVuSans-6e" transform="translate(0 0.015625)"/>
     <use xlink:href="#DejaVuSans-6f" transform="translate(63.378906 0.015625)"/>
     <use xlink:href="#DejaVuSans-64" transform="translate(124.560547 0.015625)"/>
     <use xlink:href="#DejaVuSans-65" transform="translate(188.037109 0.015625)"/>
     <use xlink:href="#DejaVuSans-20" transform="translate(249.560547 0.015625)"/>
     <use xlink:href="#STIXGeneral-Italic-1d62a" transform="translate(281.347656 0.015625)"/>
     <use xlink:href="#STIXGeneral-Regular-3d" transform="translate(318.467639 0.015625)"/>
     <use xlink:href="#STIXGeneral-Regular-1d7e2" transform="translate(402.087622 0.015625)"/>
    </g>
    <!-- $x_i,\; v_i$ -->
    <g style="fill: #37474f" transform="translate(85.224824 83.922435) scale(0.086 -0.086)">
     <defs>
      <path id="STIXGeneral-Italic-1d639" d="M 3482 2899 
L 2202 1510 
L 2893 0 
L 2291 0 
L 1786 1120 
L 794 0 
L 192 0 
L 1600 1530 
L 986 2899 
L 1587 2899 
L 2022 1933 
L 2880 2899 
L 3482 2899 
z
" transform="scale(0.015625)"/>
      <path id="STIXGeneral-Regular-2c" d="M 531 -902 
L 467 -781 
Q 998 -422 998 -96 
Q 998 -13 909 -13 
Q 883 -13 822 -25 
Q 762 -38 723 -38 
Q 352 -38 352 288 
Q 352 454 457 553 
Q 563 653 736 653 
Q 954 653 1101 496 
Q 1248 339 1248 96 
Q 1248 -198 1053 -473 
Q 858 -749 531 -902 
z
" transform="scale(0.015625)"/>
      <path id="STIXGeneral-Italic-1d637" d="M 3552 2899 
L 1562 -90 
L 1421 -90 
L 915 2899 
L 1459 2899 
L 1766 986 
L 3008 2899 
L 3552 2899 
z
" transform="scale(0.015625)"/>
     </defs>
     <use xlink:href="#STIXGeneral-Italic-1d639" transform="translate(0 0.703125)"/>
     <use xlink:href="#STIXGeneral-Italic-1d62a" transform="translate(48.199997 -12.885937) scale(0.7)"/>
     <use xlink:href="#STIXGeneral-Regular-2c" transform="translate(65.86483 0.703125)"/>
     <use xlink:href="#STIXGeneral-Italic-1d637" transform="translate(126.984978 0.703125)"/>
     <use xlink:href="#STIXGeneral-Italic-1d62a" transform="translate(174.384972 -12.885937) scale(0.7)"/>
    </g>
    <!-- $z_{B,i},\; z_{T,i}$ -->
    <g style="fill: #37474f" transform="translate(79.462824 94.532752) scale(0.086 -0.086)">
     <defs>
      <path id="STIXGeneral-Italic-1d63b" d="M 3309 2899 
L 3277 2771 
L 1088 454 
L 2778 454 
L 2605 0 
L 160 0 
L 186 128 
L 2374 2445 
L 922 2445 
L 1107 2899 
L 3309 2899 
z
" transform="scale(0.015625)"/>
      <path id="STIXGeneral-Italic-1d609" d="M 1530 4237 
L 2842 4237 
Q 4102 4237 4102 3488 
Q 4102 3123 3888 2819 
Q 3674 2515 3264 2342 
Q 3846 2131 3846 1562 
Q 3846 909 3308 454 
Q 2771 0 2010 0 
L 474 0 
L 1530 4237 
z
M 1658 2522 
L 2234 2522 
Q 3514 2522 3514 3360 
Q 3514 3763 2797 3763 
L 1965 3763 
L 1658 2522 
z
M 1146 474 
L 1952 474 
Q 2566 474 2921 762 
Q 3277 1050 3277 1472 
Q 3277 1805 3005 1917 
Q 2733 2029 2042 2029 
L 1536 2029 
L 1146 474 
z
" transform="scale(0.015625)"/>
      <path id="STIXGeneral-Italic-1d61b" d="M 4787 4237 
L 4730 3763 
L 3162 3763 
L 2221 0 
L 1664 0 
L 2598 3763 
L 1030 3763 
L 1216 4237 
L 4787 4237 
z
" transform="scale(0.015625)"/>
     </defs>
     <use xlink:href="#STIXGeneral-Italic-1d63b" transform="translate(0 0.703125)"/>
     <use xlink:href="#STIXGeneral-Italic-1d609" transform="translate(44.699997 -12.885937) scale(0.7)"/>
     <use xlink:href="#STIXGeneral-Regular-2c" transform="translate(86.979993 -12.885937) scale(0.7)"/>
     <use xlink:href="#STIXGeneral-Italic-1d62a" transform="translate(115.063981 -12.885937) scale(0.7)"/>
     <use xlink:href="#STIXGeneral-Regular-2c" transform="translate(132.728814 0.703125)"/>
     <use xlink:href="#STIXGeneral-Italic-1d63b" transform="translate(193.848962 0.703125)"/>
     <use xlink:href="#STIXGeneral-Italic-1d61b" transform="translate(238.548959 -12.885937) scale(0.7)"/>
     <use xlink:href="#STIXGeneral-Regular-2c" transform="translate(281.108951 -12.885937) scale(0.7)"/>
     <use xlink:href="#STIXGeneral-Italic-1d62a" transform="translate(309.192939 -12.885937) scale(0.7)"/>
    </g>
    <!-- $m_i,\;\mathrm{Davis}_i$ -->
    <g style="fill: #37474f" transform="translate(76.495824 105.418538) scale(0.086 -0.086)">
     <defs>
      <path id="STIXGeneral-Italic-1d62e" d="M 1619 2938 
L 1530 2573 
Q 1939 2963 2515 2963 
Q 3078 2963 3251 2547 
Q 3725 2963 4262 2963 
Q 4576 2963 4768 2796 
Q 4960 2630 4960 2310 
Q 4960 2176 4922 2016 
L 4422 0 
L 3930 0 
L 4397 1875 
Q 4435 2029 4435 2144 
Q 4435 2509 4045 2509 
Q 3872 2509 3584 2345 
Q 3296 2182 3149 1933 
L 2669 0 
L 2176 0 
L 2630 1856 
Q 2675 2061 2675 2144 
Q 2675 2509 2298 2509 
Q 2125 2509 1833 2349 
Q 1542 2189 1389 1933 
L 909 0 
L 416 0 
L 1114 2816 
L 1568 2970 
L 1619 2938 
z
" transform="scale(0.015625)"/>
      <path id="STIXGeneral-Regular-1d5a3" d="M 474 4237 
L 1536 4237 
Q 4198 4237 4198 2093 
Q 4198 1677 4051 1305 
Q 3904 934 3619 640 
Q 3334 346 2880 173 
Q 2426 0 1850 0 
L 474 0 
L 474 4237 
z
M 1030 474 
L 1344 474 
Q 1946 474 2272 522 
Q 2598 570 2906 730 
Q 3629 1107 3629 2099 
Q 3629 2554 3485 2867 
Q 3341 3181 3014 3405 
Q 2714 3610 2349 3686 
Q 1984 3763 1414 3763 
L 1030 3763 
L 1030 474 
z
" transform="scale(0.015625)"/>
      <path id="STIXGeneral-Regular-1d5ba" d="M 2502 0 
L 1958 0 
L 1926 282 
Q 1542 -64 973 -64 
Q 627 -64 425 115 
Q 224 294 224 646 
Q 224 1107 630 1408 
Q 1037 1709 1933 1882 
L 1933 2093 
Q 1933 2278 1782 2393 
Q 1632 2509 1389 2509 
Q 902 2509 698 1933 
L 602 1933 
L 288 2131 
Q 371 2566 678 2764 
Q 986 2963 1402 2963 
Q 1875 2963 2156 2729 
Q 2438 2496 2438 2086 
L 2438 486 
Q 2438 301 2502 0 
z
M 1933 845 
L 1933 1421 
Q 1382 1331 1050 1146 
Q 730 979 730 717 
Q 730 390 1101 390 
Q 1530 390 1933 845 
z
" transform="scale(0.015625)"/>
      <path id="STIXGeneral-Regular-1d5cf" d="M 2835 2899 
L 1587 -90 
L 1446 -90 
L 198 2899 
L 742 2899 
L 1523 986 
L 2291 2899 
L 2835 2899 
z
" transform="scale(0.015625)"/>
      <path id="STIXGeneral-Regular-1d5c2" d="M 998 3750 
L 410 3750 
L 410 4346 
L 998 4346 
L 998 3750 
z
M 973 0 
L 442 0 
L 442 2816 
L 915 2970 
L 973 2938 
L 973 0 
z
" transform="scale(0.015625)"/>
      <path id="STIXGeneral-Regular-1d5cc" d="M 2112 2054 
L 2016 2054 
Q 1837 2336 1657 2425 
Q 1478 2515 1229 2515 
Q 1024 2515 921 2412 
Q 819 2310 819 2189 
Q 819 2029 953 1917 
Q 1088 1805 1357 1696 
Q 1888 1472 2064 1286 
Q 2240 1101 2240 755 
Q 2240 333 1850 90 
Q 1606 -64 1210 -64 
Q 922 -64 726 19 
Q 531 102 320 288 
L 320 947 
L 416 947 
Q 666 390 1248 390 
Q 1453 390 1593 483 
Q 1734 576 1734 755 
Q 1734 883 1616 976 
Q 1498 1069 1184 1210 
Q 698 1427 506 1638 
Q 314 1850 314 2163 
Q 314 2496 570 2729 
Q 826 2963 1242 2963 
Q 1792 2963 2112 2624 
L 2112 2054 
z
" transform="scale(0.015625)"/>
     </defs>
     <use xlink:href="#STIXGeneral-Italic-1d62e" transform="translate(0 0.09375)"/>
     <use xlink:href="#STIXGeneral-Italic-1d62a" transform="translate(75.599991 -13.495312) scale(0.7)"/>
     <use xlink:href="#STIXGeneral-Regular-2c" transform="translate(93.264824 0.09375)"/>
     <use xlink:href="#STIXGeneral-Regular-1d5a3" transform="translate(154.384972 0.09375)"/>
     <use xlink:href="#STIXGeneral-Regular-1d5ba" transform="translate(223.584954 0.09375)"/>
     <use xlink:href="#STIXGeneral-Regular-1d5cf" transform="translate(268.384942 0.09375)"/>
     <use xlink:href="#STIXGeneral-Regular-1d5c2" transform="translate(315.784936 0.09375)"/>
     <use xlink:href="#STIXGeneral-Regular-1d5cc" transform="translate(337.78492 0.09375)"/>
     <use xlink:href="#STIXGeneral-Italic-1d62a" transform="translate(377.47761 -13.495312) scale(0.7)"/>
    </g>
   </g>
   <g id="text_3">
    <!-- Car 1 -->
    <g style="fill: #263238" transform="translate(216.545702 64.296886) scale(0.1 -0.1)">
     <defs>
      <path id="DejaVuSans-Bold-43" d="M 4288 256 
Q 3956 84 3597 -3 
Q 3238 -91 2847 -91 
Q 1681 -91 1000 561 
Q 319 1213 319 2328 
Q 319 3447 1000 4098 
Q 1681 4750 2847 4750 
Q 3238 4750 3597 4662 
Q 3956 4575 4288 4403 
L 4288 3438 
Q 3953 3666 3628 3772 
Q 3303 3878 2944 3878 
Q 2300 3878 1931 3465 
Q 1563 3053 1563 2328 
Q 1563 1606 1931 1193 
Q 2300 781 2944 781 
Q 3303 781 3628 887 
Q 3953 994 4288 1222 
L 4288 256 
z
" transform="scale(0.015625)"/>
      <path id="DejaVuSans-Bold-61" d="M 2106 1575 
Q 1756 1575 1579 1456 
Q 1403 1338 1403 1106 
Q 1403 894 1545 773 
Q 1688 653 1941 653 
Q 2256 653 2472 879 
Q 2688 1106 2688 1447 
L 2688 1575 
L 2106 1575 
z
M 3816 1997 
L 3816 0 
L 2688 0 
L 2688 519 
Q 2463 200 2181 54 
Q 1900 -91 1497 -91 
Q 953 -91 614 226 
Q 275 544 275 1050 
Q 275 1666 698 1953 
Q 1122 2241 2028 2241 
L 2688 2241 
L 2688 2328 
Q 2688 2594 2478 2717 
Q 2269 2841 1825 2841 
Q 1466 2841 1156 2769 
Q 847 2697 581 2553 
L 581 3406 
Q 941 3494 1303 3539 
Q 1666 3584 2028 3584 
Q 2975 3584 3395 3211 
Q 3816 2838 3816 1997 
z
" transform="scale(0.015625)"/>
      <path id="DejaVuSans-Bold-72" d="M 3138 2547 
Q 2991 2616 2845 2648 
Q 2700 2681 2553 2681 
Q 2122 2681 1889 2404 
Q 1656 2128 1656 1613 
L 1656 0 
L 538 0 
L 538 3500 
L 1656 3500 
L 1656 2925 
Q 1872 3269 2151 3426 
Q 2431 3584 2822 3584 
Q 2878 3584 2943 3579 
Q 3009 3575 3134 3559 
L 3138 2547 
z
" transform="scale(0.015625)"/>
      <path id="DejaVuSans-Bold-20" transform="scale(0.015625)"/>
      <path id="DejaVuSans-Bold-31" d="M 750 831 
L 1813 831 
L 1813 3847 
L 722 3622 
L 722 4441 
L 1806 4666 
L 2950 4666 
L 2950 831 
L 4013 831 
L 4013 0 
L 750 0 
L 750 831 
z
" transform="scale(0.015625)"/>
     </defs>
     <use xlink:href="#DejaVuSans-Bold-43"/>
     <use xlink:href="#DejaVuSans-Bold-61" transform="translate(73.388672 0)"/>
     <use xlink:href="#DejaVuSans-Bold-72" transform="translate(140.869141 0)"/>
     <use xlink:href="#DejaVuSans-Bold-20" transform="translate(190.185547 0)"/>
     <use xlink:href="#DejaVuSans-Bold-31" transform="translate(225 0)"/>
    </g>
   </g>
   <g id="text_4">
    <!-- node $i=1$ -->
    <g style="fill: #37474f" transform="translate(211.795608 73.312117) scale(0.086 -0.086)">
     <defs>
      <path id="STIXGeneral-Regular-1d7e3" d="M 1933 0 
L 1427 0 
L 1427 3648 
Q 1286 3584 1008 3440 
Q 730 3296 691 3277 
L 691 3744 
L 1843 4333 
L 1933 4301 
L 1933 0 
z
" transform="scale(0.015625)"/>
     </defs>
     <use xlink:href="#DejaVuSans-6e" transform="translate(0 0.015625)"/>
     <use xlink:href="#DejaVuSans-6f" transform="translate(63.378906 0.015625)"/>
     <use xlink:href="#DejaVuSans-64" transform="translate(124.560547 0.015625)"/>
     <use xlink:href="#DejaVuSans-65" transform="translate(188.037109 0.015625)"/>
     <use xlink:href="#DejaVuSans-20" transform="translate(249.560547 0.015625)"/>
     <use xlink:href="#STIXGeneral-Italic-1d62a" transform="translate(281.347656 0.015625)"/>
     <use xlink:href="#STIXGeneral-Regular-3d" transform="translate(318.467639 0.015625)"/>
     <use xlink:href="#STIXGeneral-Regular-1d7e3" transform="translate(402.087622 0.015625)"/>
    </g>
    <!-- $x_i,\; v_i$ -->
    <g style="fill: #37474f" transform="translate(222.975608 83.922435) scale(0.086 -0.086)">
     <use xlink:href="#STIXGeneral-Italic-1d639" transform="translate(0 0.703125)"/>
     <use xlink:href="#STIXGeneral-Italic-1d62a" transform="translate(48.199997 -12.885937) scale(0.7)"/>
     <use xlink:href="#STIXGeneral-Regular-2c" transform="translate(65.86483 0.703125)"/>
     <use xlink:href="#STIXGeneral-Italic-1d637" transform="translate(126.984978 0.703125)"/>
     <use xlink:href="#STIXGeneral-Italic-1d62a" transform="translate(174.384972 -12.885937) scale(0.7)"/>
    </g>
    <!-- $z_{B,i},\; z_{T,i}$ -->
    <g style="fill: #37474f" transform="translate(217.213608 94.532752) scale(0.086 -0.086)">
     <use xlink:href="#STIXGeneral-Italic-1d63b" transform="translate(0 0.703125)"/>
     <use xlink:href="#STIXGeneral-Italic-1d609" transform="translate(44.699997 -12.885937) scale(0.7)"/>
     <use xlink:href="#STIXGeneral-Regular-2c" transform="translate(86.979993 -12.885937) scale(0.7)"/>
     <use xlink:href="#STIXGeneral-Italic-1d62a" transform="translate(115.063981 -12.885937) scale(0.7)"/>
     <use xlink:href="#STIXGeneral-Regular-2c" transform="translate(132.728814 0.703125)"/>
     <use xlink:href="#STIXGeneral-Italic-1d63b" transform="translate(193.848962 0.703125)"/>
     <use xlink:href="#STIXGeneral-Italic-1d61b" transform="translate(238.548959 -12.885937) scale(0.7)"/>
     <use xlink:href="#STIXGeneral-Regular-2c" transform="translate(281.108951 -12.885937) scale(0.7)"/>
     <use xlink:href="#STIXGeneral-Italic-1d62a" transform="translate(309.192939 -12.885937) scale(0.7)"/>
    </g>
    <!-- $m_i,\;\mathrm{Davis}_i$ -->
    <g style="fill: #37474f" transform="translate(214.246608 105.418538) scale(0.086 -0.086)">
     <use xlink:href="#STIXGeneral-Italic-1d62e" transform="translate(0 0.09375)"/>
     <use xlink:href="#STIXGeneral-Italic-1d62a" transform="translate(75.599991 -13.495312) scale(0.7)"/>
     <use xlink:href="#STIXGeneral-Regular-2c" transform="translate(93.264824 0.09375)"/>
     <use xlink:href="#STIXGeneral-Regular-1d5a3" transform="translate(154.384972 0.09375)"/>
     <use xlink:href="#STIXGeneral-Regular-1d5ba" transform="translate(223.584954 0.09375)"/>
     <use xlink:href="#STIXGeneral-Regular-1d5cf" transform="translate(268.384942 0.09375)"/>
     <use xlink:href="#STIXGeneral-Regular-1d5c2" transform="translate(315.784936 0.09375)"/>
     <use xlink:href="#STIXGeneral-Regular-1d5cc" transform="translate(337.78492 0.09375)"/>
     <use xlink:href="#STIXGeneral-Italic-1d62a" transform="translate(377.47761 -13.495312) scale(0.7)"/>
    </g>
   </g>
   <g id="text_5">
    <!-- Car 2 -->
    <g style="fill: #263238" transform="translate(354.296486 64.296886) scale(0.1 -0.1)">
     <defs>
      <path id="DejaVuSans-Bold-32" d="M 1844 884 
L 3897 884 
L 3897 0 
L 506 0 
L 506 884 
L 2209 2388 
Q 2438 2594 2547 2791 
Q 2656 2988 2656 3200 
Q 2656 3528 2436 3728 
Q 2216 3928 1850 3928 
Q 1569 3928 1234 3808 
Q 900 3688 519 3450 
L 519 4475 
Q 925 4609 1322 4679 
Q 1719 4750 2100 4750 
Q 2938 4750 3402 4381 
Q 3866 4013 3866 3353 
Q 3866 2972 3669 2642 
Q 3472 2313 2841 1759 
L 1844 884 
z
" transform="scale(0.015625)"/>
     </defs>
     <use xlink:href="#DejaVuSans-Bold-43"/>
     <use xlink:href="#DejaVuSans-Bold-61" transform="translate(73.388672 0)"/>
     <use xlink:href="#DejaVuSans-Bold-72" transform="translate(140.869141 0)"/>
     <use xlink:href="#DejaVuSans-Bold-20" transform="translate(190.185547 0)"/>
     <use xlink:href="#DejaVuSans-Bold-32" transform="translate(225 0)"/>
    </g>
   </g>
   <g id="text_6">
    <!-- node $i=2$ -->
    <g style="fill: #37474f" transform="translate(349.546392 73.312117) scale(0.086 -0.086)">
     <defs>
      <path id="STIXGeneral-Regular-1d7e4" d="M 3002 454 
L 2816 0 
L 224 0 
L 224 134 
L 1344 1504 
L 1344 1498 
L 1702 1933 
Q 1952 2234 2054 2365 
Q 2157 2496 2253 2685 
Q 2349 2874 2349 3040 
Q 2349 3437 2134 3654 
Q 1920 3872 1549 3872 
Q 1254 3872 1008 3629 
Q 762 3386 698 2938 
L 237 3046 
Q 339 3616 716 3971 
Q 1094 4326 1594 4326 
Q 2150 4326 2502 3980 
Q 2854 3635 2854 3142 
Q 2854 2784 2720 2525 
Q 2586 2266 2157 1728 
L 1133 454 
L 3002 454 
z
" transform="scale(0.015625)"/>
     </defs>
     <use xlink:href="#DejaVuSans-6e" transform="translate(0 0.015625)"/>
     <use xlink:href="#DejaVuSans-6f" transform="translate(63.378906 0.015625)"/>
     <use xlink:href="#DejaVuSans-64" transform="translate(124.560547 0.015625)"/>
     <use xlink:href="#DejaVuSans-65" transform="translate(188.037109 0.015625)"/>
     <use xlink:href="#DejaVuSans-20" transform="translate(249.560547 0.015625)"/>
     <use xlink:href="#STIXGeneral-Italic-1d62a" transform="translate(281.347656 0.015625)"/>
     <use xlink:href="#STIXGeneral-Regular-3d" transform="translate(318.467639 0.015625)"/>
     <use xlink:href="#STIXGeneral-Regular-1d7e4" transform="translate(402.087622 0.015625)"/>
    </g>
    <!-- $x_i,\; v_i$ -->
    <g style="fill: #37474f" transform="translate(360.726392 83.922435) scale(0.086 -0.086)">
     <use xlink:href="#STIXGeneral-Italic-1d639" transform="translate(0 0.703125)"/>
     <use xlink:href="#STIXGeneral-Italic-1d62a" transform="translate(48.199997 -12.885937) scale(0.7)"/>
     <use xlink:href="#STIXGeneral-Regular-2c" transform="translate(65.86483 0.703125)"/>
     <use xlink:href="#STIXGeneral-Italic-1d637" transform="translate(126.984978 0.703125)"/>
     <use xlink:href="#STIXGeneral-Italic-1d62a" transform="translate(174.384972 -12.885937) scale(0.7)"/>
    </g>
    <!-- $z_{B,i},\; z_{T,i}$ -->
    <g style="fill: #37474f" transform="translate(354.964392 94.532752) scale(0.086 -0.086)">
     <use xlink:href="#STIXGeneral-Italic-1d63b" transform="translate(0 0.703125)"/>
     <use xlink:href="#STIXGeneral-Italic-1d609" transform="translate(44.699997 -12.885937) scale(0.7)"/>
     <use xlink:href="#STIXGeneral-Regular-2c" transform="translate(86.979993 -12.885937) scale(0.7)"/>
     <use xlink:href="#STIXGeneral-Italic-1d62a" transform="translate(115.063981 -12.885937) scale(0.7)"/>
     <use xlink:href="#STIXGeneral-Regular-2c" transform="translate(132.728814 0.703125)"/>
     <use xlink:href="#STIXGeneral-Italic-1d63b" transform="translate(193.848962 0.703125)"/>
     <use xlink:href="#STIXGeneral-Italic-1d61b" transform="translate(238.548959 -12.885937) scale(0.7)"/>
     <use xlink:href="#STIXGeneral-Regular-2c" transform="translate(281.108951 -12.885937) scale(0.7)"/>
     <use xlink:href="#STIXGeneral-Italic-1d62a" transform="translate(309.192939 -12.885937) scale(0.7)"/>
    </g>
    <!-- $m_i,\;\mathrm{Davis}_i$ -->
    <g style="fill: #37474f" transform="translate(351.997392 105.418538) scale(0.086 -0.086)">
     <use xlink:href="#STIXGeneral-Italic-1d62e" transform="translate(0 0.09375)"/>
     <use xlink:href="#STIXGeneral-Italic-1d62a" transform="translate(75.599991 -13.495312) scale(0.7)"/>
     <use xlink:href="#STIXGeneral-Regular-2c" transform="translate(93.264824 0.09375)"/>
     <use xlink:href="#STIXGeneral-Regular-1d5a3" transform="translate(154.384972 0.09375)"/>
     <use xlink:href="#STIXGeneral-Regular-1d5ba" transform="translate(223.584954 0.09375)"/>
     <use xlink:href="#STIXGeneral-Regular-1d5cf" transform="translate(268.384942 0.09375)"/>
     <use xlink:href="#STIXGeneral-Regular-1d5c2" transform="translate(315.784936 0.09375)"/>
     <use xlink:href="#STIXGeneral-Regular-1d5cc" transform="translate(337.78492 0.09375)"/>
     <use xlink:href="#STIXGeneral-Italic-1d62a" transform="translate(377.47761 -13.495312) scale(0.7)"/>
    </g>
   </g>
   <g id="text_7">
    <!-- Car N -->
    <g style="fill: #263238" transform="translate(491.341801 64.296886) scale(0.1 -0.1)">
     <defs>
      <path id="DejaVuSans-Bold-4e" d="M 588 4666 
L 1931 4666 
L 3628 1466 
L 3628 4666 
L 4769 4666 
L 4769 0 
L 3425 0 
L 1728 3200 
L 1728 0 
L 588 0 
L 588 4666 
z
" transform="scale(0.015625)"/>
     </defs>
     <use xlink:href="#DejaVuSans-Bold-43"/>
     <use xlink:href="#DejaVuSans-Bold-61" transform="translate(73.388672 0)"/>
     <use xlink:href="#DejaVuSans-Bold-72" transform="translate(140.869141 0)"/>
     <use xlink:href="#DejaVuSans-Bold-20" transform="translate(190.185547 0)"/>
     <use xlink:href="#DejaVuSans-Bold-4e" transform="translate(225 0)"/>
    </g>
   </g>
   <g id="text_8">
    <!-- node $i=N$ -->
    <g style="fill: #37474f" transform="translate(486.566176 73.312117) scale(0.086 -0.086)">
     <defs>
      <path id="STIXGeneral-Italic-1d615" d="M 4902 4237 
L 3821 -90 
L 3405 0 
L 1926 3610 
L 1030 0 
L 474 0 
L 1530 4237 
L 2304 4237 
L 3571 1139 
L 4346 4237 
L 4902 4237 
z
" transform="scale(0.015625)"/>
     </defs>
     <use xlink:href="#DejaVuSans-6e" transform="translate(0 0.015625)"/>
     <use xlink:href="#DejaVuSans-6f" transform="translate(63.378906 0.015625)"/>
     <use xlink:href="#DejaVuSans-64" transform="translate(124.560547 0.015625)"/>
     <use xlink:href="#DejaVuSans-65" transform="translate(188.037109 0.015625)"/>
     <use xlink:href="#DejaVuSans-20" transform="translate(249.560547 0.015625)"/>
     <use xlink:href="#STIXGeneral-Italic-1d62a" transform="translate(281.347656 0.015625)"/>
     <use xlink:href="#STIXGeneral-Regular-3d" transform="translate(318.467639 0.015625)"/>
     <use xlink:href="#STIXGeneral-Italic-1d615" transform="translate(402.087622 0.015625)"/>
    </g>
    <!-- $x_i,\; v_i$ -->
    <g style="fill: #37474f" transform="translate(498.477176 83.922435) scale(0.086 -0.086)">
     <use xlink:href="#STIXGeneral-Italic-1d639" transform="translate(0 0.703125)"/>
     <use xlink:href="#STIXGeneral-Italic-1d62a" transform="translate(48.199997 -12.885937) scale(0.7)"/>
     <use xlink:href="#STIXGeneral-Regular-2c" transform="translate(65.86483 0.703125)"/>
     <use xlink:href="#STIXGeneral-Italic-1d637" transform="translate(126.984978 0.703125)"/>
     <use xlink:href="#STIXGeneral-Italic-1d62a" transform="translate(174.384972 -12.885937) scale(0.7)"/>
    </g>
    <!-- $z_{B,i},\; z_{T,i}$ -->
    <g style="fill: #37474f" transform="translate(492.715176 94.532752) scale(0.086 -0.086)">
     <use xlink:href="#STIXGeneral-Italic-1d63b" transform="translate(0 0.703125)"/>
     <use xlink:href="#STIXGeneral-Italic-1d609" transform="translate(44.699997 -12.885937) scale(0.7)"/>
     <use xlink:href="#STIXGeneral-Regular-2c" transform="translate(86.979993 -12.885937) scale(0.7)"/>
     <use xlink:href="#STIXGeneral-Italic-1d62a" transform="translate(115.063981 -12.885937) scale(0.7)"/>
     <use xlink:href="#STIXGeneral-Regular-2c" transform="translate(132.728814 0.703125)"/>
     <use xlink:href="#STIXGeneral-Italic-1d63b" transform="translate(193.848962 0.703125)"/>
     <use xlink:href="#STIXGeneral-Italic-1d61b" transform="translate(238.548959 -12.885937) scale(0.7)"/>
     <use xlink:href="#STIXGeneral-Regular-2c" transform="translate(281.108951 -12.885937) scale(0.7)"/>
     <use xlink:href="#STIXGeneral-Italic-1d62a" transform="translate(309.192939 -12.885937) scale(0.7)"/>
    </g>
    <!-- $m_i,\;\mathrm{Davis}_i$ -->
    <g style="fill: #37474f" transform="translate(489.748176 105.418538) scale(0.086 -0.086)">
     <use xlink:href="#STIXGeneral-Italic-1d62e" transform="translate(0 0.09375)"/>
     <use xlink:href="#STIXGeneral-Italic-1d62a" transform="translate(75.599991 -13.495312) scale(0.7)"/>
     <use xlink:href="#STIXGeneral-Regular-2c" transform="translate(93.264824 0.09375)"/>
     <use xlink:href="#STIXGeneral-Regular-1d5a3" transform="translate(154.384972 0.09375)"/>
     <use xlink:href="#STIXGeneral-Regular-1d5ba" transform="translate(223.584954 0.09375)"/>
     <use xlink:href="#STIXGeneral-Regular-1d5cf" transform="translate(268.384942 0.09375)"/>
     <use xlink:href="#STIXGeneral-Regular-1d5c2" transform="translate(315.784936 0.09375)"/>
     <use xlink:href="#STIXGeneral-Regular-1d5cc" transform="translate(337.78492 0.09375)"/>
     <use xlink:href="#STIXGeneral-Italic-1d62a" transform="translate(377.47761 -13.495312) scale(0.7)"/>
    </g>
   </g>
   <g id="text_9">
    <!-- coupler $j=1$ -->
    <g style="fill: #546e7a" transform="translate(138.619216 39.062292) scale(0.082 -0.082)">
     <defs>
      <path id="DejaVuSans-63" d="M 3122 3366 
L 3122 2828 
Q 2878 2963 2633 3030 
Q 2388 3097 2138 3097 
Q 1578 3097 1268 2742 
Q 959 2388 959 1747 
Q 959 1106 1268 751 
Q 1578 397 2138 397 
Q 2388 397 2633 464 
Q 2878 531 3122 666 
L 3122 134 
Q 2881 22 2623 -34 
Q 2366 -91 2075 -91 
Q 1284 -91 818 406 
Q 353 903 353 1747 
Q 353 2603 823 3093 
Q 1294 3584 2113 3584 
Q 2378 3584 2631 3529 
Q 2884 3475 3122 3366 
z
" transform="scale(0.015625)"/>
      <path id="DejaVuSans-75" d="M 544 1381 
L 544 3500 
L 1119 3500 
L 1119 1403 
Q 1119 906 1312 657 
Q 1506 409 1894 409 
Q 2359 409 2629 706 
Q 2900 1003 2900 1516 
L 2900 3500 
L 3475 3500 
L 3475 0 
L 2900 0 
L 2900 538 
Q 2691 219 2414 64 
Q 2138 -91 1772 -91 
Q 1169 -91 856 284 
Q 544 659 544 1381 
z
M 1991 3584 
L 1991 3584 
z
" transform="scale(0.015625)"/>
      <path id="DejaVuSans-70" d="M 1159 525 
L 1159 -1331 
L 581 -1331 
L 581 3500 
L 1159 3500 
L 1159 2969 
Q 1341 3281 1617 3432 
Q 1894 3584 2278 3584 
Q 2916 3584 3314 3078 
Q 3713 2572 3713 1747 
Q 3713 922 3314 415 
Q 2916 -91 2278 -91 
Q 1894 -91 1617 61 
Q 1341 213 1159 525 
z
M 3116 1747 
Q 3116 2381 2855 2742 
Q 2594 3103 2138 3103 
Q 1681 3103 1420 2742 
Q 1159 2381 1159 1747 
Q 1159 1113 1420 752 
Q 1681 391 2138 391 
Q 2594 391 2855 752 
Q 3116 1113 3116 1747 
z
" transform="scale(0.015625)"/>
      <path id="DejaVuSans-6c" d="M 603 4863 
L 1178 4863 
L 1178 0 
L 603 0 
L 603 4863 
z
" transform="scale(0.015625)"/>
      <path id="DejaVuSans-72" d="M 2631 2963 
Q 2534 3019 2420 3045 
Q 2306 3072 2169 3072 
Q 1681 3072 1420 2755 
Q 1159 2438 1159 1844 
L 1159 0 
L 581 0 
L 581 3500 
L 1159 3500 
L 1159 2956 
Q 1341 3275 1631 3429 
Q 1922 3584 2338 3584 
Q 2397 3584 2469 3576 
Q 2541 3569 2628 3553 
L 2631 2963 
z
" transform="scale(0.015625)"/>
      <path id="STIXGeneral-Italic-1d62b" d="M 2266 4346 
L 2118 3750 
L 1523 3750 
L 1670 4346 
L 2266 4346 
z
M 1882 2938 
L 1107 -166 
Q 954 -762 634 -1072 
Q 314 -1382 -115 -1382 
Q -435 -1382 -755 -1152 
L -480 -742 
L -378 -742 
Q -147 -922 -6 -922 
Q 397 -922 557 -269 
L 1325 2810 
L 1830 2970 
L 1882 2938 
z
" transform="scale(0.015625)"/>
     </defs>
     <use xlink:href="#DejaVuSans-63" transform="translate(0 0.015625)"/>
     <use xlink:href="#DejaVuSans-6f" transform="translate(54.980469 0.015625)"/>
     <use xlink:href="#DejaVuSans-75" transform="translate(116.162109 0.015625)"/>
     <use xlink:href="#DejaVuSans-70" transform="translate(179.541016 0.015625)"/>
     <use xlink:href="#DejaVuSans-6c" transform="translate(243.017578 0.015625)"/>
     <use xlink:href="#DejaVuSans-65" transform="translate(270.800781 0.015625)"/>
     <use xlink:href="#DejaVuSans-72" transform="translate(332.324219 0.015625)"/>
     <use xlink:href="#DejaVuSans-20" transform="translate(373.4375 0.015625)"/>
     <use xlink:href="#STIXGeneral-Italic-1d62b" transform="translate(405.224609 0.015625)"/>
     <use xlink:href="#STIXGeneral-Regular-3d" transform="translate(445.744601 0.015625)"/>
     <use xlink:href="#STIXGeneral-Regular-1d7e3" transform="translate(529.364584 0.015625)"/>
    </g>
   </g>
   <g id="text_10">
    <!-- coupler $j=2$ -->
    <g style="fill: #546e7a" transform="translate(276.37 39.062292) scale(0.082 -0.082)">
     <use xlink:href="#DejaVuSans-63" transform="translate(0 0.015625)"/>
     <use xlink:href="#DejaVuSans-6f" transform="translate(54.980469 0.015625)"/>
     <use xlink:href="#DejaVuSans-75" transform="translate(116.162109 0.015625)"/>
     <use xlink:href="#DejaVuSans-70" transform="translate(179.541016 0.015625)"/>
     <use xlink:href="#DejaVuSans-6c" transform="translate(243.017578 0.015625)"/>
     <use xlink:href="#DejaVuSans-65" transform="translate(270.800781 0.015625)"/>
     <use xlink:href="#DejaVuSans-72" transform="translate(332.324219 0.015625)"/>
     <use xlink:href="#DejaVuSans-20" transform="translate(373.4375 0.015625)"/>
     <use xlink:href="#STIXGeneral-Italic-1d62b" transform="translate(405.224609 0.015625)"/>
     <use xlink:href="#STIXGeneral-Regular-3d" transform="translate(445.744601 0.015625)"/>
     <use xlink:href="#STIXGeneral-Regular-1d7e4" transform="translate(529.364584 0.015625)"/>
    </g>
   </g>
   <g id="text_11">
    <!-- coupler $j=3$ -->
    <g style="fill: #546e7a" transform="translate(414.120784 39.062292) scale(0.082 -0.082)">
     <defs>
      <path id="STIXGeneral-Regular-1d7e5" d="M 723 3149 
L 269 3258 
Q 410 3757 736 4041 
Q 1062 4326 1555 4326 
Q 2010 4326 2317 4038 
Q 2624 3750 2624 3322 
Q 2624 2752 2074 2368 
Q 2432 2240 2627 1942 
Q 2822 1645 2822 1344 
Q 2822 723 2419 320 
Q 2010 -90 1312 -90 
Q 608 -90 198 358 
L 499 717 
Q 826 365 1280 365 
Q 1754 365 2022 595 
Q 2317 845 2317 1222 
Q 2317 1555 2077 1779 
Q 1837 2003 1421 2061 
L 1011 2061 
L 1011 2195 
L 1318 2522 
Q 1606 2522 1862 2742 
Q 2118 2963 2118 3277 
Q 2118 3546 1948 3709 
Q 1779 3872 1536 3872 
Q 1280 3872 1059 3689 
Q 838 3507 723 3149 
z
" transform="scale(0.015625)"/>
     </defs>
     <use xlink:href="#DejaVuSans-63" transform="translate(0 0.015625)"/>
     <use xlink:href="#DejaVuSans-6f" transform="translate(54.980469 0.015625)"/>
     <use xlink:href="#DejaVuSans-75" transform="translate(116.162109 0.015625)"/>
     <use xlink:href="#DejaVuSans-70" transform="translate(179.541016 0.015625)"/>
     <use xlink:href="#DejaVuSans-6c" transform="translate(243.017578 0.015625)"/>
     <use xlink:href="#DejaVuSans-65" transform="translate(270.800781 0.015625)"/>
     <use xlink:href="#DejaVuSans-72" transform="translate(332.324219 0.015625)"/>
     <use xlink:href="#DejaVuSans-20" transform="translate(373.4375 0.015625)"/>
     <use xlink:href="#STIXGeneral-Italic-1d62b" transform="translate(405.224609 0.015625)"/>
     <use xlink:href="#STIXGeneral-Regular-3d" transform="translate(445.744601 0.015625)"/>
     <use xlink:href="#STIXGeneral-Regular-1d7e5" transform="translate(529.364584 0.015625)"/>
    </g>
   </g>
   <g id="text_12">
    <g id="patch_6">
     <path d="M 264.154969 170.369687 
L 336.145031 170.369687 
Q 339.413031 170.369687 339.413031 167.101687 
L 339.413031 126.719312 
Q 339.413031 123.451312 336.145031 123.451312 
L 264.154969 123.451312 
Q 260.886969 123.451312 260.886969 126.719312 
L 260.886969 167.101687 
Q 260.886969 170.369687 264.154969 170.369687 
z
" style="fill: #ffffff; opacity: 0.96; stroke: #90a4ae; stroke-linejoin: miter"/>
    </g>
    <!-- edge $j$ (coupler) -->
    <g style="fill: #455a64" transform="translate(266.137 133.358781) scale(0.086 -0.086)">
     <defs>
      <path id="DejaVuSans-67" d="M 2906 1791 
Q 2906 2416 2648 2759 
Q 2391 3103 1925 3103 
Q 1463 3103 1205 2759 
Q 947 2416 947 1791 
Q 947 1169 1205 825 
Q 1463 481 1925 481 
Q 2391 481 2648 825 
Q 2906 1169 2906 1791 
z
M 3481 434 
Q 3481 -459 3084 -895 
Q 2688 -1331 1869 -1331 
Q 1566 -1331 1297 -1286 
Q 1028 -1241 775 -1147 
L 775 -588 
Q 1028 -725 1275 -790 
Q 1522 -856 1778 -856 
Q 2344 -856 2625 -561 
Q 2906 -266 2906 331 
L 2906 616 
Q 2728 306 2450 153 
Q 2172 0 1784 0 
Q 1141 0 747 490 
Q 353 981 353 1791 
Q 353 2603 747 3093 
Q 1141 3584 1784 3584 
Q 2172 3584 2450 3431 
Q 2728 3278 2906 2969 
L 2906 3500 
L 3481 3500 
L 3481 434 
z
" transform="scale(0.015625)"/>
      <path id="DejaVuSans-28" d="M 1984 4856 
Q 1566 4138 1362 3434 
Q 1159 2731 1159 2009 
Q 1159 1288 1364 580 
Q 1569 -128 1984 -844 
L 1484 -844 
Q 1016 -109 783 600 
Q 550 1309 550 2009 
Q 550 2706 781 3412 
Q 1013 4119 1484 4856 
L 1984 4856 
z
" transform="scale(0.015625)"/>
      <path id="DejaVuSans-29" d="M 513 4856 
L 1013 4856 
Q 1481 4119 1714 3412 
Q 1947 2706 1947 2009 
Q 1947 1309 1714 600 
Q 1481 -109 1013 -844 
L 513 -844 
Q 928 -128 1133 580 
Q 1338 1288 1338 2009 
Q 1338 2731 1133 3434 
Q 928 4138 513 4856 
z
" transform="scale(0.015625)"/>
     </defs>
     <use xlink:href="#DejaVuSans-65" transform="translate(0 0.015625)"/>
     <use xlink:href="#DejaVuSans-64" transform="translate(61.523438 0.015625)"/>
     <use xlink:href="#DejaVuSans-67" transform="translate(125 0.015625)"/>
     <use xlink:href="#DejaVuSans-65" transform="translate(188.476562 0.015625)"/>
     <use xlink:href="#DejaVuSans-20" transform="translate(250 0.015625)"/>
     <use xlink:href="#STIXGeneral-Italic-1d62b" transform="translate(281.787109 0.015625)"/>
     <use xlink:href="#DejaVuSans-20" transform="translate(307.187103 0.015625)"/>
     <use xlink:href="#DejaVuSans-28" transform="translate(338.974213 0.015625)"/>
     <use xlink:href="#DejaVuSans-63" transform="translate(377.987885 0.015625)"/>
     <use xlink:href="#DejaVuSans-6f" transform="translate(432.968353 0.015625)"/>
     <use xlink:href="#DejaVuSans-75" transform="translate(494.149994 0.015625)"/>
     <use xlink:href="#DejaVuSans-70" transform="translate(557.5289 0.015625)"/>
     <use xlink:href="#DejaVuSans-6c" transform="translate(621.005463 0.015625)"/>
     <use xlink:href="#DejaVuSans-65" transform="translate(648.788666 0.015625)"/>
     <use xlink:href="#DejaVuSans-72" transform="translate(710.312103 0.015625)"/>
     <use xlink:href="#DejaVuSans-29" transform="translate(751.425385 0.015625)"/>
    </g>
    <!-- $\delta_j,\; \dot\delta_j$ -->
    <g style="fill: #455a64" transform="translate(291.378 144.641981) scale(0.086 -0.086)">
     <defs>
      <path id="STIXNonUnicode-Italic-e1db" d="M 3437 3923 
L 3098 3565 
L 3002 3565 
Q 2803 3917 2221 3917 
Q 2016 3917 1805 3814 
Q 1594 3712 1594 3520 
Q 1594 3411 1750 3289 
Q 1907 3168 2131 3037 
Q 2355 2906 2582 2739 
Q 2810 2573 2966 2310 
Q 3123 2048 3123 1728 
Q 3123 1472 3004 1171 
Q 2886 870 2668 588 
Q 2451 307 2089 121 
Q 1728 -64 1293 -64 
Q 781 -64 486 224 
Q 192 512 192 973 
Q 192 1594 589 2077 
Q 986 2560 1626 2746 
Q 1075 3014 1075 3392 
Q 1075 3859 1484 4115 
Q 1894 4371 2400 4371 
Q 3181 4371 3437 3923 
z
M 2294 806 
Q 2618 1222 2618 1708 
Q 2618 2195 2099 2419 
Q 1536 2413 1123 2029 
Q 710 1645 710 1101 
Q 710 794 899 592 
Q 1088 390 1414 390 
Q 1971 390 2294 806 
z
" transform="scale(0.015625)"/>
      <path id="STIXGeneral-Regular-307" d="M -1158 3661 
Q -1158 3526 -1251 3436 
Q -1344 3347 -1478 3347 
Q -1606 3347 -1699 3440 
Q -1792 3533 -1792 3661 
Q -1792 3795 -1705 3888 
Q -1619 3981 -1478 3981 
Q -1331 3981 -1244 3891 
Q -1158 3802 -1158 3661 
z
" transform="scale(0.015625)"/>
     </defs>
     <use xlink:href="#STIXNonUnicode-Italic-e1db" transform="translate(0 0.296875)"/>
     <use xlink:href="#STIXGeneral-Italic-1d62b" transform="translate(50.492692 -13.292187) scale(0.7)"/>
     <use xlink:href="#STIXGeneral-Regular-2c" transform="translate(70.537532 0.296875)"/>
     <use xlink:href="#STIXGeneral-Regular-307" transform="translate(186.329555 28.796875)"/>
     <use xlink:href="#STIXNonUnicode-Italic-e1db" transform="translate(131.65768 0.296875)"/>
     <use xlink:href="#STIXGeneral-Italic-1d62b" transform="translate(183.137875 -13.292187) scale(0.7)"/>
    </g>
    <!-- $F_{\mathrm{cpl},j}$ -->
    <g style="fill: #455a64" transform="translate(292.281 154.977568) scale(0.086 -0.086)">
     <defs>
      <path id="STIXGeneral-Italic-1d60d" d="M 4346 4237 
L 4282 3763 
L 1965 3763 
L 1645 2470 
L 3539 2470 
L 3418 1990 
L 1523 1990 
L 1030 0 
L 474 0 
L 1530 4237 
L 4346 4237 
z
" transform="scale(0.015625)"/>
      <path id="STIXGeneral-Regular-1d5bc" d="M 2349 1062 
L 2765 845 
Q 2560 378 2221 154 
Q 1907 -64 1485 -64 
Q 1011 -64 685 192 
Q 147 608 147 1382 
Q 147 2080 547 2521 
Q 947 2963 1549 2963 
Q 1901 2963 2189 2816 
Q 2477 2669 2630 2374 
L 2349 2029 
L 2246 2029 
Q 2042 2509 1523 2509 
Q 1158 2509 905 2221 
Q 653 1933 653 1421 
Q 653 947 902 668 
Q 1152 390 1523 390 
Q 2042 390 2349 1062 
z
" transform="scale(0.015625)"/>
      <path id="STIXGeneral-Regular-1d5c9" d="M 909 2938 
L 922 2618 
Q 1274 2963 1798 2963 
Q 2144 2963 2381 2816 
Q 2656 2643 2832 2307 
Q 3008 1971 3008 1562 
Q 3008 883 2601 409 
Q 2195 -64 1619 -64 
Q 1254 -64 934 166 
L 934 -1229 
L 486 -1382 
L 429 -1350 
L 429 2816 
L 858 2970 
L 909 2938 
z
M 934 1888 
L 934 787 
Q 1184 390 1594 390 
Q 2010 390 2256 697 
Q 2502 1005 2502 1472 
Q 2502 1914 2278 2211 
Q 2054 2509 1670 2509 
Q 1446 2509 1241 2339 
Q 1037 2170 934 1888 
z
" transform="scale(0.015625)"/>
      <path id="STIXGeneral-Regular-1d5c5" d="M 922 0 
L 390 0 
L 390 4224 
L 864 4378 
L 922 4346 
L 922 0 
z
" transform="scale(0.015625)"/>
     </defs>
     <use xlink:href="#STIXGeneral-Italic-1d60d" transform="translate(0 0.796875)"/>
     <use xlink:href="#STIXGeneral-Regular-1d5bc" transform="translate(53.499985 -12.792187) scale(0.7)"/>
     <use xlink:href="#STIXGeneral-Regular-1d5c9" transform="translate(85.419978 -12.792187) scale(0.7)"/>
     <use xlink:href="#STIXGeneral-Regular-1d5c5" transform="translate(120.27997 -12.792187) scale(0.7)"/>
     <use xlink:href="#STIXGeneral-Regular-2c" transform="translate(134.629959 -12.792187) scale(0.7)"/>
     <use xlink:href="#STIXGeneral-Italic-1d62b" transform="translate(162.713947 -12.792187) scale(0.7)"/>
    </g>
    <!-- slack / draft–buff -->
    <g style="fill: #455a64" transform="translate(264.154969 165.313156) scale(0.086 -0.086)">
     <defs>
      <path id="DejaVuSans-73" d="M 2834 3397 
L 2834 2853 
Q 2591 2978 2328 3040 
Q 2066 3103 1784 3103 
Q 1356 3103 1142 2972 
Q 928 2841 928 2578 
Q 928 2378 1081 2264 
Q 1234 2150 1697 2047 
L 1894 2003 
Q 2506 1872 2764 1633 
Q 3022 1394 3022 966 
Q 3022 478 2636 193 
Q 2250 -91 1575 -91 
Q 1294 -91 989 -36 
Q 684 19 347 128 
L 347 722 
Q 666 556 975 473 
Q 1284 391 1588 391 
Q 1994 391 2212 530 
Q 2431 669 2431 922 
Q 2431 1156 2273 1281 
Q 2116 1406 1581 1522 
L 1381 1569 
Q 847 1681 609 1914 
Q 372 2147 372 2553 
Q 372 3047 722 3315 
Q 1072 3584 1716 3584 
Q 2034 3584 2315 3537 
Q 2597 3491 2834 3397 
z
" transform="scale(0.015625)"/>
      <path id="DejaVuSans-61" d="M 2194 1759 
Q 1497 1759 1228 1600 
Q 959 1441 959 1056 
Q 959 750 1161 570 
Q 1363 391 1709 391 
Q 2188 391 2477 730 
Q 2766 1069 2766 1631 
L 2766 1759 
L 2194 1759 
z
M 3341 1997 
L 3341 0 
L 2766 0 
L 2766 531 
Q 2569 213 2275 61 
Q 1981 -91 1556 -91 
Q 1019 -91 701 211 
Q 384 513 384 1019 
Q 384 1609 779 1909 
Q 1175 2209 1959 2209 
L 2766 2209 
L 2766 2266 
Q 2766 2663 2505 2880 
Q 2244 3097 1772 3097 
Q 1472 3097 1187 3025 
Q 903 2953 641 2809 
L 641 3341 
Q 956 3463 1253 3523 
Q 1550 3584 1831 3584 
Q 2591 3584 2966 3190 
Q 3341 2797 3341 1997 
z
" transform="scale(0.015625)"/>
      <path id="DejaVuSans-6b" d="M 581 4863 
L 1159 4863 
L 1159 1991 
L 2875 3500 
L 3609 3500 
L 1753 1863 
L 3688 0 
L 2938 0 
L 1159 1709 
L 1159 0 
L 581 0 
L 581 4863 
z
" transform="scale(0.015625)"/>
      <path id="DejaVuSans-2f" d="M 1625 4666 
L 2156 4666 
L 531 -594 
L 0 -594 
L 1625 4666 
z
" transform="scale(0.015625)"/>
      <path id="DejaVuSans-66" d="M 2375 4863 
L 2375 4384 
L 1825 4384 
Q 1516 4384 1395 4259 
Q 1275 4134 1275 3809 
L 1275 3500 
L 2222 3500 
L 2222 3053 
L 1275 3053 
L 1275 0 
L 697 0 
L 697 3053 
L 147 3053 
L 147 3500 
L 697 3500 
L 697 3744 
Q 697 4328 969 4595 
Q 1241 4863 1831 4863 
L 2375 4863 
z
" transform="scale(0.015625)"/>
      <path id="DejaVuSans-74" d="M 1172 4494 
L 1172 3500 
L 2356 3500 
L 2356 3053 
L 1172 3053 
L 1172 1153 
Q 1172 725 1289 603 
Q 1406 481 1766 481 
L 2356 481 
L 2356 0 
L 1766 0 
Q 1100 0 847 248 
Q 594 497 594 1153 
L 594 3053 
L 172 3053 
L 172 3500 
L 594 3500 
L 594 4494 
L 1172 4494 
z
" transform="scale(0.015625)"/>
      <path id="DejaVuSans-2013" d="M 313 1978 
L 2888 1978 
L 2888 1528 
L 313 1528 
L 313 1978 
z
" transform="scale(0.015625)"/>
      <path id="DejaVuSans-62" d="M 3116 1747 
Q 3116 2381 2855 2742 
Q 2594 3103 2138 3103 
Q 1681 3103 1420 2742 
Q 1159 2381 1159 1747 
Q 1159 1113 1420 752 
Q 1681 391 2138 391 
Q 2594 391 2855 752 
Q 3116 1113 3116 1747 
z
M 1159 2969 
Q 1341 3281 1617 3432 
Q 1894 3584 2278 3584 
Q 2916 3584 3314 3078 
Q 3713 2572 3713 1747 
Q 3713 922 3314 415 
Q 2916 -91 2278 -91 
Q 1894 -91 1617 61 
Q 1341 213 1159 525 
L 1159 0 
L 581 0 
L 581 4863 
L 1159 4863 
L 1159 2969 
z
" transform="scale(0.015625)"/>
     </defs>
     <use xlink:href="#DejaVuSans-73"/>
     <use xlink:href="#DejaVuSans-6c" transform="translate(52.099609 0)"/>
     <use xlink:href="#DejaVuSans-61" transform="translate(79.882812 0)"/>
     <use xlink:href="#DejaVuSans-63" transform="translate(141.162109 0)"/>
     <use xlink:href="#DejaVuSans-6b" transform="translate(196.142578 0)"/>
     <use xlink:href="#DejaVuSans-20" transform="translate(254.052734 0)"/>
     <use xlink:href="#DejaVuSans-2f" transform="translate(285.839844 0)"/>
     <use xlink:href="#DejaVuSans-20" transform="translate(319.53125 0)"/>
     <use xlink:href="#DejaVuSans-64" transform="translate(351.318359 0)"/>
     <use xlink:href="#DejaVuSans-72" transform="translate(414.794922 0)"/>
     <use xlink:href="#DejaVuSans-61" transform="translate(455.908203 0)"/>
     <use xlink:href="#DejaVuSans-66" transform="translate(517.1875 0)"/>
     <use xlink:href="#DejaVuSans-74" transform="translate(550.642578 0)"/>
     <use xlink:href="#DejaVuSans-2013" transform="translate(589.851562 0)"/>
     <use xlink:href="#DejaVuSans-62" transform="translate(639.851562 0)"/>
     <use xlink:href="#DejaVuSans-75" transform="translate(703.328125 0)"/>
     <use xlink:href="#DejaVuSans-66" transform="translate(766.707031 0)"/>
     <use xlink:href="#DejaVuSans-66" transform="translate(801.912109 0)"/>
    </g>
   </g>
   <g id="text_13">
    <!-- State: node tensor $\mathbf{H}\in\mathbb{R}^{N\times d_{\mathrm{node}}}$   ·   Couplers: edge tensor $\mathbf{E}\in\mathbb{R}^{(N-1)\times d_{\mathrm{edge}}}$ -->
    <g style="fill: #37474f" transform="translate(137.248 184.954066) scale(0.094 -0.094)">
     <defs>
      <path id="DejaVuSans-Oblique-53" d="M 3859 4513 
L 3738 3897 
Q 3422 4066 3111 4152 
Q 2800 4238 2509 4238 
Q 1944 4238 1609 3991 
Q 1275 3744 1275 3334 
Q 1275 3109 1398 2989 
Q 1522 2869 2034 2731 
L 2413 2638 
Q 3053 2472 3303 2217 
Q 3553 1963 3553 1503 
Q 3553 797 2998 353 
Q 2444 -91 1538 -91 
Q 1166 -91 791 -17 
Q 416 56 38 206 
L 166 856 
Q 513 641 861 531 
Q 1209 422 1556 422 
Q 2147 422 2503 684 
Q 2859 947 2859 1369 
Q 2859 1650 2717 1795 
Q 2575 1941 2106 2059 
L 1728 2156 
Q 1081 2325 845 2545 
Q 609 2766 609 3163 
Q 609 3859 1145 4304 
Q 1681 4750 2541 4750 
Q 2875 4750 3203 4690 
Q 3531 4631 3859 4513 
z
" transform="scale(0.015625)"/>
      <path id="DejaVuSans-Oblique-74" d="M 2706 3500 
L 2619 3053 
L 1472 3053 
L 1100 1153 
Q 1081 1047 1072 975 
Q 1063 903 1063 863 
Q 1063 663 1183 572 
Q 1303 481 1569 481 
L 2150 481 
L 2053 0 
L 1503 0 
Q 991 0 739 200 
Q 488 400 488 806 
Q 488 878 497 964 
Q 506 1050 525 1153 
L 897 3053 
L 409 3053 
L 500 3500 
L 978 3500 
L 1172 4494 
L 1747 4494 
L 1556 3500 
L 2706 3500 
z
" transform="scale(0.015625)"/>
      <path id="DejaVuSans-Oblique-61" d="M 3438 1997 
L 3047 0 
L 2472 0 
L 2578 531 
Q 2325 219 2001 64 
Q 1678 -91 1281 -91 
Q 834 -91 548 182 
Q 263 456 263 884 
Q 263 1497 752 1853 
Q 1241 2209 2100 2209 
L 2900 2209 
L 2931 2363 
Q 2938 2388 2941 2417 
Q 2944 2447 2944 2509 
Q 2944 2788 2717 2942 
Q 2491 3097 2081 3097 
Q 1800 3097 1504 3025 
Q 1209 2953 897 2809 
L 997 3341 
Q 1322 3463 1633 3523 
Q 1944 3584 2234 3584 
Q 2853 3584 3176 3315 
Q 3500 3047 3500 2534 
Q 3500 2431 3484 2292 
Q 3469 2153 3438 1997 
z
M 2816 1759 
L 2241 1759 
Q 1534 1759 1195 1570 
Q 856 1381 856 984 
Q 856 709 1029 553 
Q 1203 397 1509 397 
Q 1978 397 2328 733 
Q 2678 1069 2791 1631 
L 2816 1759 
z
" transform="scale(0.015625)"/>
      <path id="DejaVuSans-Oblique-65" d="M 3078 2063 
Q 3088 2113 3092 2166 
Q 3097 2219 3097 2272 
Q 3097 2653 2873 2875 
Q 2650 3097 2266 3097 
Q 1838 3097 1509 2826 
Q 1181 2556 1013 2059 
L 3078 2063 
z
M 3578 1613 
L 903 1613 
Q 884 1494 878 1425 
Q 872 1356 872 1306 
Q 872 872 1139 634 
Q 1406 397 1894 397 
Q 2269 397 2603 481 
Q 2938 566 3225 728 
L 3116 159 
Q 2806 34 2476 -28 
Q 2147 -91 1806 -91 
Q 1078 -91 686 257 
Q 294 606 294 1247 
Q 294 1794 489 2264 
Q 684 2734 1063 3103 
Q 1306 3334 1642 3459 
Q 1978 3584 2356 3584 
Q 2950 3584 3301 3228 
Q 3653 2872 3653 2272 
Q 3653 2128 3634 1964 
Q 3616 1800 3578 1613 
z
" transform="scale(0.015625)"/>
      <path id="DejaVuSans-Oblique-3a" d="M 978 3309 
L 1638 3309 
L 1484 2516 
L 825 2516 
L 978 3309 
z
M 488 794 
L 1147 794 
L 991 0 
L 331 0 
L 488 794 
z
" transform="scale(0.015625)"/>
      <path id="DejaVuSans-Oblique-20" transform="scale(0.015625)"/>
      <path id="DejaVuSans-Oblique-6e" d="M 3566 2113 
L 3156 0 
L 2578 0 
L 2988 2091 
Q 3016 2238 3031 2350 
Q 3047 2463 3047 2528 
Q 3047 2791 2881 2937 
Q 2716 3084 2419 3084 
Q 1956 3084 1622 2776 
Q 1288 2469 1184 1941 
L 800 0 
L 225 0 
L 903 3500 
L 1478 3500 
L 1363 2950 
Q 1603 3253 1940 3418 
Q 2278 3584 2650 3584 
Q 3113 3584 3367 3334 
Q 3622 3084 3622 2631 
Q 3622 2519 3608 2391 
Q 3594 2263 3566 2113 
z
" transform="scale(0.015625)"/>
      <path id="DejaVuSans-Oblique-6f" d="M 1625 -91 
Q 1009 -91 651 289 
Q 294 669 294 1325 
Q 294 1706 417 2101 
Q 541 2497 738 2766 
Q 1047 3184 1428 3384 
Q 1809 3584 2291 3584 
Q 2888 3584 3255 3212 
Q 3622 2841 3622 2241 
Q 3622 1825 3500 1412 
Q 3378 1000 3181 728 
Q 2875 309 2494 109 
Q 2113 -91 1625 -91 
z
M 891 1344 
Q 891 869 1089 633 
Q 1288 397 1691 397 
Q 2269 397 2648 901 
Q 3028 1406 3028 2181 
Q 3028 2634 2825 2865 
Q 2622 3097 2228 3097 
Q 1903 3097 1650 2945 
Q 1397 2794 1197 2484 
Q 1050 2253 970 1956 
Q 891 1659 891 1344 
z
" transform="scale(0.015625)"/>
      <path id="DejaVuSans-Oblique-64" d="M 2675 525 
Q 2444 222 2128 65 
Q 1813 -91 1428 -91 
Q 903 -91 598 267 
Q 294 625 294 1247 
Q 294 1766 478 2236 
Q 663 2706 1013 3078 
Q 1244 3325 1534 3454 
Q 1825 3584 2144 3584 
Q 2481 3584 2739 3421 
Q 2997 3259 3138 2956 
L 3513 4863 
L 4091 4863 
L 3144 0 
L 2566 0 
L 2675 525 
z
M 891 1350 
Q 891 897 1095 644 
Q 1300 391 1663 391 
Q 1931 391 2161 520 
Q 2391 650 2566 903 
Q 2750 1166 2856 1509 
Q 2963 1853 2963 2188 
Q 2963 2622 2758 2865 
Q 2553 3109 2194 3109 
Q 1922 3109 1687 2981 
Q 1453 2853 1288 2613 
Q 1106 2353 998 2009 
Q 891 1666 891 1350 
z
" transform="scale(0.015625)"/>
      <path id="DejaVuSans-Oblique-73" d="M 3200 3397 
L 3091 2853 
Q 2863 2978 2609 3040 
Q 2356 3103 2088 3103 
Q 1634 3103 1373 2948 
Q 1113 2794 1113 2528 
Q 1113 2219 1719 2053 
Q 1766 2041 1788 2034 
L 1972 1978 
Q 2547 1819 2739 1644 
Q 2931 1469 2931 1166 
Q 2931 609 2489 259 
Q 2047 -91 1331 -91 
Q 1053 -91 747 -37 
Q 441 16 72 128 
L 184 722 
Q 500 559 806 475 
Q 1113 391 1394 391 
Q 1816 391 2080 572 
Q 2344 753 2344 1031 
Q 2344 1331 1650 1516 
L 1591 1531 
L 1394 1581 
Q 956 1697 753 1886 
Q 550 2075 550 2369 
Q 550 2928 970 3256 
Q 1391 3584 2113 3584 
Q 2397 3584 2667 3537 
Q 2938 3491 3200 3397 
z
" transform="scale(0.015625)"/>
      <path id="DejaVuSans-Oblique-72" d="M 2853 2969 
Q 2766 3016 2653 3041 
Q 2541 3066 2413 3066 
Q 1953 3066 1609 2717 
Q 1266 2369 1153 1784 
L 800 0 
L 225 0 
L 909 3500 
L 1484 3500 
L 1375 2956 
Q 1603 3259 1920 3421 
Q 2238 3584 2597 3584 
Q 2691 3584 2781 3573 
Q 2872 3563 2963 3538 
L 2853 2969 
z
" transform="scale(0.015625)"/>
      <path id="STIXGeneral-Bold-1d5db" d="M 4064 0 
L 3232 0 
L 3232 1901 
L 1344 1901 
L 1344 0 
L 512 0 
L 512 4326 
L 1344 4326 
L 1344 2554 
L 3232 2554 
L 3232 4326 
L 4064 4326 
L 4064 0 
z
" transform="scale(0.015625)"/>
      <path id="STIXGeneral-Regular-2208" d="M 4000 -173 
L 2138 -173 
Q 1382 -173 883 355 
Q 384 883 384 1612 
Q 384 2342 877 2870 
Q 1370 3398 2118 3398 
L 4000 3398 
L 4000 2976 
L 2144 2976 
Q 1664 2976 1286 2633 
Q 909 2291 826 1824 
L 4000 1824 
L 4000 1402 
L 819 1402 
Q 902 934 1280 592 
Q 1658 250 2138 250 
L 4000 250 
L 4000 -173 
z
" transform="scale(0.015625)"/>
      <path id="STIXGeneral-Italic-211d" d="M 1229 4179 
L 3360 4179 
Q 3827 4179 4108 3894 
Q 4390 3610 4390 3142 
Q 4390 2554 4060 2186 
Q 3731 1818 3149 1715 
L 4026 0 
L 2925 0 
L 2125 1690 
L 1549 1690 
L 1094 0 
L 109 0 
L 1229 4179 
z
M 3866 3821 
L 3392 2022 
Q 3770 2144 3962 2438 
Q 4154 2733 4154 3136 
Q 4154 3584 3866 3821 
z
M 3142 1978 
L 3648 3872 
Q 3450 3942 3296 3942 
L 2150 3942 
L 1613 1926 
L 2630 1926 
Q 2957 1926 3142 1978 
z
M 3629 237 
L 2899 1696 
Q 2829 1683 2682 1683 
Q 2630 1683 2531 1686 
Q 2432 1690 2387 1690 
L 3072 237 
L 3629 237 
z
M 1907 3942 
L 1408 3942 
L 416 237 
L 915 237 
L 1907 3942 
z
" transform="scale(0.015625)"/>
      <path id="STIXGeneral-Regular-d7" d="M 3821 141 
L 3526 -160 
L 2048 1312 
L 570 -160 
L 275 134 
L 1747 1613 
L 275 3091 
L 576 3386 
L 2048 1914 
L 3526 3386 
L 3821 3098 
L 2349 1613 
L 3821 141 
z
" transform="scale(0.015625)"/>
      <path id="STIXGeneral-Italic-1d625" d="M 3840 4346 
L 2957 819 
Q 2854 397 2816 83 
L 2317 -70 
L 2266 -38 
L 2330 282 
Q 1888 -64 1370 -64 
Q 954 -64 707 195 
Q 461 454 461 922 
Q 461 1722 1049 2342 
Q 1638 2963 2304 2963 
Q 2656 2963 2931 2726 
L 3302 4224 
L 3789 4378 
L 3840 4346 
z
M 2502 1011 
L 2778 2106 
Q 2605 2509 2214 2509 
Q 1798 2509 1395 2089 
Q 992 1670 992 1075 
Q 992 736 1161 563 
Q 1331 390 1613 390 
Q 1837 390 2080 560 
Q 2323 730 2502 1011 
z
" transform="scale(0.015625)"/>
      <path id="STIXGeneral-Regular-1d5c7" d="M 2714 0 
L 2208 0 
L 2208 1946 
Q 2208 2509 1683 2509 
Q 1498 2509 1248 2349 
Q 998 2189 909 1933 
L 909 0 
L 403 0 
L 403 2816 
L 819 2970 
L 877 2938 
L 890 2573 
Q 1126 2803 1347 2883 
Q 1568 2963 1856 2963 
Q 2042 2963 2234 2876 
Q 2426 2790 2541 2675 
Q 2714 2445 2714 2054 
L 2714 0 
z
" transform="scale(0.015625)"/>
      <path id="STIXGeneral-Regular-1d5c8" d="M 3014 1466 
Q 3014 1216 2924 957 
Q 2835 698 2668 464 
Q 2502 230 2220 83 
Q 1939 -64 1587 -64 
Q 966 -64 572 374 
Q 179 813 179 1466 
Q 179 2086 563 2524 
Q 947 2963 1568 2963 
Q 2214 2963 2614 2560 
Q 3014 2157 3014 1466 
z
M 2509 1459 
Q 2509 1946 2249 2227 
Q 1990 2509 1574 2509 
Q 1171 2509 928 2201 
Q 685 1894 685 1459 
Q 685 998 941 694 
Q 1197 390 1594 390 
Q 2022 390 2265 732 
Q 2509 1075 2509 1459 
z
" transform="scale(0.015625)"/>
      <path id="STIXGeneral-Regular-1d5bd" d="M 2797 83 
L 2336 -70 
L 2278 -38 
L 2266 282 
Q 1907 -64 1389 -64 
Q 1056 -64 806 83 
Q 531 250 355 589 
Q 179 928 179 1338 
Q 179 2016 585 2489 
Q 992 2963 1568 2963 
Q 1926 2963 2253 2726 
L 2253 4224 
L 2701 4378 
L 2758 4346 
L 2758 819 
Q 2758 397 2797 83 
z
M 2253 1011 
L 2253 2106 
Q 1978 2509 1594 2509 
Q 1242 2509 963 2201 
Q 685 1894 685 1421 
Q 685 1146 781 906 
Q 877 666 1043 544 
Q 1248 390 1517 390 
Q 1741 390 1945 560 
Q 2150 730 2253 1011 
z
" transform="scale(0.015625)"/>
      <path id="STIXGeneral-Regular-1d5be" d="M 2317 1069 
L 2739 845 
Q 2496 358 2214 147 
Q 1933 -64 1472 -64 
Q 890 -64 518 336 
Q 147 736 147 1446 
Q 147 2189 608 2618 
Q 973 2963 1523 2963 
Q 2029 2963 2329 2633 
Q 2630 2304 2630 1773 
L 2630 1421 
L 653 1421 
Q 653 934 902 662 
Q 1152 390 1523 390 
Q 2029 390 2317 1069 
z
M 736 1875 
L 2112 1875 
Q 2093 2509 1472 2509 
Q 1216 2509 1005 2349 
Q 794 2189 736 1875 
z
" transform="scale(0.015625)"/>
      <path id="DejaVuSans-Oblique-b7" d="M 884 2619 
L 1544 2619 
L 1388 1825 
L 728 1825 
L 884 2619 
z
" transform="scale(0.015625)"/>
      <path id="DejaVuSans-Oblique-43" d="M 4447 4306 
L 4319 3641 
Q 4019 3944 3683 4091 
Q 3347 4238 2956 4238 
Q 2422 4238 2017 3981 
Q 1613 3725 1319 3200 
Q 1131 2863 1032 2486 
Q 934 2109 934 1728 
Q 934 1091 1264 756 
Q 1594 422 2222 422 
Q 2656 422 3056 561 
Q 3456 700 3834 978 
L 3688 231 
Q 3316 72 2936 -9 
Q 2556 -91 2175 -91 
Q 1278 -91 773 396 
Q 269 884 269 1753 
Q 269 2309 461 2846 
Q 653 3384 1013 3828 
Q 1394 4300 1883 4525 
Q 2372 4750 3022 4750 
Q 3422 4750 3780 4639 
Q 4138 4528 4447 4306 
z
" transform="scale(0.015625)"/>
      <path id="DejaVuSans-Oblique-75" d="M 428 1388 
L 838 3500 
L 1416 3500 
L 1006 1409 
Q 975 1256 961 1147 
Q 947 1038 947 966 
Q 947 700 1109 554 
Q 1272 409 1569 409 
Q 2031 409 2368 721 
Q 2706 1034 2809 1563 
L 3194 3500 
L 3769 3500 
L 3091 0 
L 2516 0 
L 2631 550 
Q 2388 244 2052 76 
Q 1716 -91 1338 -91 
Q 878 -91 622 161 
Q 366 413 366 863 
Q 366 956 381 1097 
Q 397 1238 428 1388 
z
" transform="scale(0.015625)"/>
      <path id="DejaVuSans-Oblique-70" d="M 3175 2156 
Q 3175 2616 2975 2859 
Q 2775 3103 2400 3103 
Q 2144 3103 1911 2972 
Q 1678 2841 1497 2591 
Q 1319 2344 1212 1994 
Q 1106 1644 1106 1300 
Q 1106 863 1306 627 
Q 1506 391 1875 391 
Q 2147 391 2380 519 
Q 2613 647 2778 891 
Q 2956 1147 3065 1494 
Q 3175 1841 3175 2156 
z
M 1394 2969 
Q 1625 3272 1939 3428 
Q 2253 3584 2638 3584 
Q 3175 3584 3472 3232 
Q 3769 2881 3769 2247 
Q 3769 1728 3584 1258 
Q 3400 788 3053 416 
Q 2822 169 2531 39 
Q 2241 -91 1919 -91 
Q 1547 -91 1294 64 
Q 1041 219 916 525 
L 556 -1331 
L -19 -1331 
L 922 3500 
L 1497 3500 
L 1394 2969 
z
" transform="scale(0.015625)"/>
      <path id="DejaVuSans-Oblique-6c" d="M 1172 4863 
L 1747 4863 
L 800 0 
L 225 0 
L 1172 4863 
z
" transform="scale(0.015625)"/>
      <path id="DejaVuSans-Oblique-67" d="M 3816 3500 
L 3219 434 
Q 3047 -456 2561 -893 
Q 2075 -1331 1253 -1331 
Q 950 -1331 690 -1286 
Q 431 -1241 206 -1147 
L 313 -588 
Q 525 -725 762 -790 
Q 1000 -856 1269 -856 
Q 1816 -856 2167 -557 
Q 2519 -259 2631 300 
L 2681 563 
Q 2441 288 2122 144 
Q 1803 0 1434 0 
Q 903 0 598 351 
Q 294 703 294 1319 
Q 294 1803 478 2267 
Q 663 2731 997 3091 
Q 1219 3328 1514 3456 
Q 1809 3584 2131 3584 
Q 2484 3584 2746 3420 
Q 3009 3256 3138 2956 
L 3238 3500 
L 3816 3500 
z
M 2950 2216 
Q 2950 2641 2750 2872 
Q 2550 3103 2181 3103 
Q 1953 3103 1747 3012 
Q 1541 2922 1394 2759 
Q 1156 2491 1023 2127 
Q 891 1763 891 1375 
Q 891 944 1092 712 
Q 1294 481 1672 481 
Q 2219 481 2584 976 
Q 2950 1472 2950 2216 
z
" transform="scale(0.015625)"/>
      <path id="STIXGeneral-Bold-1d5d8" d="M 3821 653 
L 3648 0 
L 512 0 
L 512 4326 
L 3584 4326 
L 3584 3674 
L 1344 3674 
L 1344 2605 
L 2886 2605 
L 2886 1946 
L 1344 1946 
L 1344 653 
L 3821 653 
z
" transform="scale(0.015625)"/>
      <path id="STIXGeneral-Regular-28" d="M 1946 -1030 
L 1869 -1133 
Q 1126 -710 716 32 
Q 307 774 307 1613 
Q 307 3386 1888 4326 
L 1946 4224 
Q 1293 3667 1075 3126 
Q 858 2586 858 1632 
Q 858 685 1082 96 
Q 1306 -493 1946 -1030 
z
" transform="scale(0.015625)"/>
      <path id="STIXGeneral-Regular-2212" d="M 3974 1408 
L 410 1408 
L 410 1830 
L 3974 1830 
L 3974 1408 
z
" transform="scale(0.015625)"/>
      <path id="STIXGeneral-Regular-29" d="M 186 4224 
L 262 4326 
Q 992 3891 1408 3148 
Q 1824 2406 1824 1581 
Q 1824 -166 243 -1133 
L 186 -1030 
Q 845 -486 1059 54 
Q 1274 595 1274 1562 
Q 1274 2534 1059 3120 
Q 845 3706 186 4224 
z
" transform="scale(0.015625)"/>
      <path id="STIXGeneral-Regular-1d5c0" d="M 2989 2362 
L 2490 2362 
Q 2592 2163 2592 1914 
Q 2592 1459 2288 1171 
Q 1984 883 1523 883 
Q 1331 883 1133 934 
Q 870 781 870 653 
Q 870 422 1178 410 
Q 1286 410 1513 400 
Q 1741 390 1850 384 
Q 2931 339 2931 -378 
Q 2931 -890 2432 -1136 
Q 1933 -1382 1235 -1382 
Q 742 -1382 438 -1196 
Q 134 -1011 134 -659 
Q 134 -186 582 64 
Q 346 224 346 467 
Q 346 762 627 1018 
Q 659 1050 736 1139 
Q 403 1440 403 1894 
Q 403 2336 729 2649 
Q 1056 2963 1549 2963 
Q 1786 2963 2029 2874 
Q 2259 2790 2554 2790 
L 2989 2790 
L 2989 2362 
z
M 2086 1901 
Q 2086 2195 1936 2352 
Q 1786 2509 1510 2509 
Q 1254 2509 1081 2336 
Q 909 2163 909 1933 
Q 909 1664 1075 1504 
Q 1242 1344 1530 1344 
Q 1779 1344 1932 1504 
Q 2086 1664 2086 1901 
z
M 1286 -96 
L 1158 -96 
Q 640 -250 640 -550 
Q 640 -922 1286 -922 
Q 1824 -922 2074 -826 
Q 2227 -762 2323 -656 
Q 2419 -550 2419 -429 
Q 2419 -224 2208 -173 
Q 1920 -96 1286 -96 
z
" transform="scale(0.015625)"/>
     </defs>
     <use xlink:href="#DejaVuSans-Oblique-53" transform="translate(0 0.878125)"/>
     <use xlink:href="#DejaVuSans-Oblique-74" transform="translate(63.476562 0.878125)"/>
     <use xlink:href="#DejaVuSans-Oblique-61" transform="translate(102.685547 0.878125)"/>
     <use xlink:href="#DejaVuSans-Oblique-74" transform="translate(163.964844 0.878125)"/>
     <use xlink:href="#DejaVuSans-Oblique-65" transform="translate(203.173828 0.878125)"/>
     <use xlink:href="#DejaVuSans-Oblique-3a" transform="translate(264.697266 0.878125)"/>
     <use xlink:href="#DejaVuSans-Oblique-20" transform="translate(298.388672 0.878125)"/>
     <use xlink:href="#DejaVuSans-Oblique-6e" transform="translate(330.175781 0.878125)"/>
     <use xlink:href="#DejaVuSans-Oblique-6f" transform="translate(393.554688 0.878125)"/>
     <use xlink:href="#DejaVuSans-Oblique-64" transform="translate(454.736328 0.878125)"/>
     <use xlink:href="#DejaVuSans-Oblique-65" transform="translate(518.212891 0.878125)"/>
     <use xlink:href="#DejaVuSans-Oblique-20" transform="translate(579.736328 0.878125)"/>
     <use xlink:href="#DejaVuSans-Oblique-74" transform="translate(611.523438 0.878125)"/>
     <use xlink:href="#DejaVuSans-Oblique-65" transform="translate(650.732422 0.878125)"/>
     <use xlink:href="#DejaVuSans-Oblique-6e" transform="translate(712.255859 0.878125)"/>
     <use xlink:href="#DejaVuSans-Oblique-73" transform="translate(775.634766 0.878125)"/>
     <use xlink:href="#DejaVuSans-Oblique-6f" transform="translate(827.734375 0.878125)"/>
     <use xlink:href="#DejaVuSans-Oblique-72" transform="translate(888.916016 0.878125)"/>
     <use xlink:href="#DejaVuSans-Oblique-20" transform="translate(930.029297 0.878125)"/>
     <use xlink:href="#STIXGeneral-Bold-1d5db" transform="translate(961.816406 0.878125)"/>
     <use xlink:href="#STIXGeneral-Regular-2208" transform="translate(1048.436389 0.878125)"/>
     <use xlink:href="#STIXGeneral-Italic-211d" transform="translate(1132.056372 0.878125)"/>
     <use xlink:href="#STIXGeneral-Italic-1d615" transform="translate(1217.083307 37.115625) scale(0.7)"/>
     <use xlink:href="#STIXGeneral-Regular-d7" transform="translate(1274.917295 37.115625) scale(0.7)"/>
     <use xlink:href="#STIXGeneral-Italic-1d625" transform="translate(1330.301283 37.115625) scale(0.7)"/>
     <use xlink:href="#STIXGeneral-Regular-1d5c7" transform="translate(1364.881279 27.603281) scale(0.49)"/>
     <use xlink:href="#STIXGeneral-Regular-1d5c8" transform="translate(1388.744277 27.603281) scale(0.49)"/>
     <use xlink:href="#STIXGeneral-Regular-1d5bd" transform="translate(1413.195274 27.603281) scale(0.49)"/>
     <use xlink:href="#STIXGeneral-Regular-1d5be" transform="translate(1437.401271 27.603281) scale(0.49)"/>
     <use xlink:href="#DejaVuSans-Oblique-20" transform="translate(1463.007503 0.878125)"/>
     <use xlink:href="#DejaVuSans-Oblique-20" transform="translate(1494.794612 0.878125)"/>
     <use xlink:href="#DejaVuSans-Oblique-20" transform="translate(1526.581721 0.878125)"/>
     <use xlink:href="#DejaVuSans-Oblique-b7" transform="translate(1558.368831 0.878125)"/>
     <use xlink:href="#DejaVuSans-Oblique-20" transform="translate(1590.15594 0.878125)"/>
     <use xlink:href="#DejaVuSans-Oblique-20" transform="translate(1621.943049 0.878125)"/>
     <use xlink:href="#DejaVuSans-Oblique-20" transform="translate(1653.730159 0.878125)"/>
     <use xlink:href="#DejaVuSans-Oblique-43" transform="translate(1685.517268 0.878125)"/>
     <use xlink:href="#DejaVuSans-Oblique-6f" transform="translate(1755.341487 0.878125)"/>
     <use xlink:href="#DejaVuSans-Oblique-75" transform="translate(1816.523128 0.878125)"/>
     <use xlink:href="#DejaVuSans-Oblique-70" transform="translate(1879.902034 0.878125)"/>
     <use xlink:href="#DejaVuSans-Oblique-6c" transform="translate(1943.378596 0.878125)"/>
     <use xlink:href="#DejaVuSans-Oblique-65" transform="translate(1971.161799 0.878125)"/>
     <use xlink:href="#DejaVuSans-Oblique-72" transform="translate(2032.685237 0.878125)"/>
     <use xlink:href="#DejaVuSans-Oblique-73" transform="translate(2073.798518 0.878125)"/>
     <use xlink:href="#DejaVuSans-Oblique-3a" transform="translate(2125.898128 0.878125)"/>
     <use xlink:href="#DejaVuSans-Oblique-20" transform="translate(2159.589534 0.878125)"/>
     <use xlink:href="#DejaVuSans-Oblique-65" transform="translate(2191.376643 0.878125)"/>
     <use xlink:href="#DejaVuSans-Oblique-64" transform="translate(2252.900081 0.878125)"/>
     <use xlink:href="#DejaVuSans-Oblique-67" transform="translate(2316.376643 0.878125)"/>
     <use xlink:href="#DejaVuSans-Oblique-65" transform="translate(2379.853206 0.878125)"/>
     <use xlink:href="#DejaVuSans-Oblique-20" transform="translate(2441.376643 0.878125)"/>
     <use xlink:href="#DejaVuSans-Oblique-74" transform="translate(2473.163753 0.878125)"/>
     <use xlink:href="#DejaVuSans-Oblique-65" transform="translate(2512.372737 0.878125)"/>
     <use xlink:href="#DejaVuSans-Oblique-6e" transform="translate(2573.896174 0.878125)"/>
     <use xlink:href="#DejaVuSans-Oblique-73" transform="translate(2637.275081 0.878125)"/>
     <use xlink:href="#DejaVuSans-Oblique-6f" transform="translate(2689.37469 0.878125)"/>
     <use xlink:href="#DejaVuSans-Oblique-72" transform="translate(2750.556331 0.878125)"/>
     <use xlink:href="#DejaVuSans-Oblique-20" transform="translate(2791.669612 0.878125)"/>
     <use xlink:href="#STIXGeneral-Bold-1d5d8" transform="translate(2823.456721 0.878125)"/>
     <use xlink:href="#STIXGeneral-Regular-2208" transform="translate(2902.076704 0.878125)"/>
     <use xlink:href="#STIXGeneral-Italic-211d" transform="translate(2985.696687 0.878125)"/>
     <use xlink:href="#STIXGeneral-Regular-28" transform="translate(3070.723622 37.115625) scale(0.7)"/>
     <use xlink:href="#STIXGeneral-Italic-1d615" transform="translate(3094.033613 37.115625) scale(0.7)"/>
     <use xlink:href="#STIXGeneral-Regular-2212" transform="translate(3151.867601 37.115625) scale(0.7)"/>
     <use xlink:href="#STIXGeneral-Regular-1d7e3" transform="translate(3210.40159 37.115625) scale(0.7)"/>
     <use xlink:href="#STIXGeneral-Regular-29" transform="translate(3245.401579 37.115625) scale(0.7)"/>
     <use xlink:href="#STIXGeneral-Regular-d7" transform="translate(3279.295569 37.115625) scale(0.7)"/>
     <use xlink:href="#STIXGeneral-Italic-1d625" transform="translate(3334.679557 37.115625) scale(0.7)"/>
     <use xlink:href="#STIXGeneral-Regular-1d5be" transform="translate(3369.259553 27.603281) scale(0.49)"/>
     <use xlink:href="#STIXGeneral-Regular-1d5bd" transform="translate(3391.01555 27.603281) scale(0.49)"/>
     <use xlink:href="#STIXGeneral-Regular-1d5c0" transform="translate(3415.221547 27.603281) scale(0.49)"/>
     <use xlink:href="#STIXGeneral-Regular-1d5be" transform="translate(3439.525542 27.603281) scale(0.49)"/>
    </g>
   </g>
  </g>
 </g>
 <defs>
  <clipPath id="p6a9dd29a23">
   <rect x="7.2" y="7.2" width="585.9" height="181.224931"/>
  </clipPath>
 </defs>
</svg>
